<?xml version="1.0" encoding="UTF-8"?>
<svg width="184px" height="184px" viewBox="0 0 184 184" version="1.1" xmlns="http://www.w3.org/2000/svg" xmlns:xlink="http://www.w3.org/1999/xlink">
    <title>Group 4</title>
    <g id="Page-1" stroke="none" stroke-width="1" fill="none" fill-rule="evenodd">
        <g id="Group-4" transform="translate(0.000000, 0.000000)" fill-rule="nonzero">
            <path d="M184,92 C184,142.81 142.81,184 92,184 C41.19,184 0,142.81 0,92 C0,41.1898 41.19,0 92,0 C142.81,0 184,41.1898 184,92 Z M23,92 C23,130.108 53.892,161 92,161 C130.108,161 161,130.108 161,92 C161,53.8924 130.108,23 92,23 C53.892,23 23,53.8924 23,92 Z" id="Shape" fill="#FFFFFF"></path>
            <path d="M92,6.4 C92,4.17384 92,3.06076 92.475,2.1754 C92.874,1.43091 93.589,0.763543 94.36,0.41714 C95.276,0.0051839 96.316,0.0776271 98.395,0.222514 C110.703,1.08009 122.735,4.40646 133.767,10.0274 C146.703,16.6187 157.896,26.178 166.43,37.9238 C174.963,49.6695 180.596,63.2682 182.867,77.608 C185.139,91.9478 183.984,106.622 179.497,120.43 C175.011,134.238 167.32,146.788 157.054,157.054 C146.788,167.32 134.238,175.011 120.43,179.497 C106.622,183.984 91.948,185.139 77.608,182.867 C65.379,180.93 53.69,176.549 43.228,170.008 C41.461,168.903 40.577,168.351 40.078,167.479 C39.658,166.746 39.472,165.786 39.586,164.949 C39.723,163.953 40.377,163.053 41.686,161.252 L47.681,153 C48.997,151.188 49.655,150.283 50.447,149.851 C51.188,149.447 51.888,149.303 52.729,149.38 C53.627,149.463 54.681,150.088 56.788,151.339 C64.28,155.785 72.563,158.782 81.206,160.15 C91.961,161.854 102.966,160.988 113.322,157.623 C123.678,154.258 133.091,148.49 140.79,140.79 C148.49,133.091 154.258,123.678 157.623,113.322 C160.988,102.966 161.854,91.9609 160.15,81.206 C158.447,70.4512 154.223,60.2521 147.822,51.4428 C141.422,42.6335 133.027,35.464 123.325,30.5205 C115.529,26.5479 107.065,24.1035 98.391,23.2966 C95.951,23.0697 94.732,22.9562 93.957,22.4956 C93.23,22.0641 92.749,21.536 92.387,20.773 C92,19.9586 92,18.839 92,16.6 L92,6.4 Z" id="Path" fill="#FF0036"></path>
        </g>
    </g>
</svg>