<?xml version="1.0" encoding="UTF-8"?>
<svg width="184px" height="184px" viewBox="0 0 184 184" version="1.1" xmlns="http://www.w3.org/2000/svg" xmlns:xlink="http://www.w3.org/1999/xlink">
    <title>Group 3</title>
    <g id="Page-1" stroke="none" stroke-width="1" fill="none" fill-rule="evenodd">
        <g id="Group-3" transform="translate(-0.000125, 0.000000)" fill-rule="nonzero">
            <path d="M184.000125,92 C184.000125,142.81 142.810125,184 92.0001253,184 C41.1901253,184 0.000125304594,142.81 0.000125304594,92 C0.000125304594,41.1898 41.1901253,0 92.0001253,0 C142.810125,0 184.000125,41.1898 184.000125,92 Z M23.0001253,92 C23.0001253,130.108 53.8921253,161 92.0001253,161 C130.108125,161 161.000125,130.108 161.000125,92 C161.000125,53.8924 130.108125,23 92.0001253,23 C53.8921253,23 23.0001253,53.8924 23.0001253,92 Z" id="Shape" fill="#FFFFFF"></path>
            <path d="M92.0001253,6.4 C92.0001253,4.17381 92.0001253,3.06072 92.4751253,2.17536 C92.8741253,1.43087 93.5891253,0.763519 94.3601253,0.417106 C95.2761253,0.00514199 96.3161253,0.0775705 98.3951253,0.222428 C118.001125,1.58816 136.719125,9.20584 151.749125,22.0427 C168.406125,36.2691 179.441125,55.9722 182.867125,77.608 C186.294125,99.2438 181.888125,121.392 170.443125,140.07 C158.997125,158.747 141.263125,172.728 120.430125,179.497 C99.5961253,186.266 77.0311253,185.38 56.7931253,176.997 C36.5551253,168.614 19.9721253,153.285 10.0271253,133.767 C0.0831253046,114.249 -2.5718747,91.8232 2.5421253,70.523 C7.1561253,51.3034 17.8221253,34.1385 32.8811253,21.5093 C34.4781253,20.1698 35.2771253,19.5001 36.2601253,19.2948 C37.0871253,19.1222 38.0581253,19.2416 38.8181253,19.6093 C39.7231253,20.0466 40.3771253,20.9471 41.6861253,22.7481 L47.6811253,31.0001 C48.9971253,32.8115 49.6551253,33.7172 49.8211253,34.6035 C49.9761253,35.4338 49.8971253,36.1439 49.5631253,36.9198 C49.2071253,37.7481 48.2871253,38.5568 46.4471253,40.1743 C35.7931253,49.5382 28.2421253,61.9995 24.9061253,75.8922 C21.0711253,91.8674 23.0621253,108.687 30.5211253,123.325 C37.9791253,137.964 50.4161253,149.461 65.5951253,155.748 C80.7731253,162.035 97.6971253,162.7 113.322125,157.623 C128.947125,152.546 142.248125,142.061 150.832125,128.052 C159.416125,114.044 162.721125,97.4329 160.150125,81.206 C157.580125,64.9792 149.305125,50.2019 136.812125,39.532 C125.948125,30.253 112.514125,24.61 98.3911253,23.2965 C95.9521253,23.0696 94.7321253,22.9562 93.9571253,22.4956 C93.2301253,22.0641 92.7491253,21.536 92.3871253,20.773 C92.0001253,19.9585 92.0001253,18.839 92.0001253,16.6 L92.0001253,6.4 Z" id="Path" fill="#FF0036"></path>
        </g>
    </g>
</svg>