<?xml version="1.0" encoding="UTF-8"?>
<svg width="184px" height="184px" viewBox="0 0 184 184" version="1.1" xmlns="http://www.w3.org/2000/svg" xmlns:xlink="http://www.w3.org/1999/xlink">
    <title>Group 2</title>
    <g id="Page-1" stroke="none" stroke-width="1" fill="none" fill-rule="evenodd">
        <g id="Group-2" transform="translate(0.000000, 0.000000)" fill-rule="nonzero">
            <path d="M184,92 C184,142.81 142.81,184 92,184 C41.1898,184 0,142.81 0,92 C0,41.1898 41.1898,0 92,0 C142.81,0 184,41.1898 184,92 Z M23,92 C23,130.108 53.8924,161 92,161 C130.108,161 161,130.108 161,92 C161,53.8924 130.108,23 92,23 C53.8924,23 23,53.8924 23,92 Z" id="Shape" fill="#FFFFFF"></path>
            <path d="M92,6.4 C92,4.17383 92,3.06075 92.4746,2.17539 C92.8738,1.4309 93.5892,0.763537 94.3597,0.417132 C95.2759,0.00517374 96.3156,0.0776126 98.395,0.22249 C113.611,1.28263 128.361,6.11309 141.296,14.3218 C154.231,22.5306 164.882,33.8202 172.32,47.1367 C173.336,48.9565 173.845,49.8664 173.862537,50.8708 C173.877,51.7154 173.577,52.647 173.074,53.3251 C172.475,54.1315 171.467,54.6054 169.453,55.5533 L160.224,59.8962 C158.198,60.8496 157.185,61.3262 156.283,61.323016 C155.439,61.32 154.756,61.1094 154.056,60.6361 C153.31,60.1308 152.688,59.0755 151.444,56.9648 C145.912,47.5802 138.221,39.6107 128.972,33.7414 C119.723,27.872 109.237,24.3055 98.391,23.2966 C95.9515,23.0697 94.7318,22.9562 93.9566,22.4956 C93.2304,22.0641 92.7492,21.536 92.3868,20.773 C92,19.9585 92,18.839 92,16.6 L92,6.4 Z" id="Path" fill="#FF0036"></path>
        </g>
    </g>
</svg>