<?xml version="1.0" encoding="UTF-8"?>
<svg width="129px" height="86px" viewBox="0 0 129 86" version="1.1" xmlns="http://www.w3.org/2000/svg" xmlns:xlink="http://www.w3.org/1999/xlink">
    <title>Group</title>
    <g id="Page-1" stroke="none" stroke-width="1" fill="none" fill-rule="evenodd">
        <g id="Group" transform="translate(16.673025, 14.018334)" fill-rule="nonzero">
            <g id="NAVIGATION-ARROW" transform="translate(0.830625, -0.000000)" fill="#FF0036">
                <path d="M0.39195,0.393566319 C-0.13065,0.916166319 -0.13065,1.76026632 0.39195,2.28286632 L5.59075,7.48176632 L0.39195,12.6805663 C-0.13065,13.2031663 -0.13065,14.0472663 0.39195,14.5698663 C0.91455,15.0924663 1.75865,15.0924663 2.28125,14.5698663 L8.43145,8.41966632 C8.95395,7.89706632 8.95395,7.05296632 8.43145,6.53036632 L2.28125,0.380166319 C1.77205,-0.128933681 0.91455,-0.128933681 0.39195,0.393566319 Z" id="Path"></path>
            </g>
            <g id="NAVIGATION-ARROW" transform="translate(4.411662, 50.480908) scale(-1, 1) translate(-4.411662, -50.480908) translate(0.000000, 43.000000)" fill="#F4F4F4">
                <path d="M0.39195,0.393566319 C-0.13065,0.916166319 -0.13065,1.76026632 0.39195,2.28286632 L5.59075,7.48176632 L0.39195,12.6805663 C-0.13065,13.2031663 -0.13065,14.0472663 0.39195,14.5698663 C0.91455,15.0924663 1.75865,15.0924663 2.28125,14.5698663 L8.43145,8.41966632 C8.95395,7.89706632 8.95395,7.05296632 8.43145,6.53036632 L2.28125,0.380166319 C1.77205,-0.128933681 0.91455,-0.128933681 0.39195,0.393566319 Z" id="Path"></path>
            </g>
            <g id="NAVIGATION-ARROW" transform="translate(86.830625, -0.000000)" fill="#F4F4F4">
                <path d="M0.39195,0.393566319 C-0.13065,0.916166319 -0.13065,1.76026632 0.39195,2.28286632 L5.59075,7.48176632 L0.39195,12.6805663 C-0.13065,13.2031663 -0.13065,14.0472663 0.39195,14.5698663 C0.91455,15.0924663 1.75865,15.0924663 2.28125,14.5698663 L8.43145,8.41966632 C8.95395,7.89706632 8.95395,7.05296632 8.43145,6.53036632 L2.28125,0.380166319 C1.77205,-0.128933681 0.91455,-0.128933681 0.39195,0.393566319 Z" id="Path"></path>
            </g>
            <g id="NAVIGATION-ARROW" transform="translate(90.411663, 50.480908) scale(-1, 1) translate(-90.411663, -50.480908) translate(86.000000, 43.000000)" fill="#FF0036">
                <path d="M0.39195,0.393566319 C-0.13065,0.916166319 -0.13065,1.76026632 0.39195,2.28286632 L5.59075,7.48176632 L0.39195,12.6805663 C-0.13065,13.2031663 -0.13065,14.0472663 0.39195,14.5698663 C0.91455,15.0924663 1.75865,15.0924663 2.28125,14.5698663 L8.43145,8.41966632 C8.95395,7.89706632 8.95395,7.05296632 8.43145,6.53036632 L2.28125,0.380166319 C1.77205,-0.128933681 0.91455,-0.128933681 0.39195,0.393566319 Z" id="Path"></path>
            </g>
        </g>
    </g>
</svg>