<?xml version="1.0" encoding="UTF-8"?>
<svg width="40px" height="80px" viewBox="0 0 40 80" version="1.1" xmlns="http://www.w3.org/2000/svg" xmlns:xlink="http://www.w3.org/1999/xlink">
    <title>Group</title>
    <g id="Page-1" stroke="none" stroke-width="1" fill="none" fill-rule="evenodd">
        <g id="Group">
            <path d="M22.4189,16.16928 L27.9801,16.16928 L27.9801,14.59118 L22.4189,14.59118 L22.4189,16.16928 Z M23.7363,19.61262 C23.382,19.96975 23.1585,20.45355 23.0671,21.06404 L27.3923,21.06404 C27.3466,20.41253 27.1219,19.92028 26.7243,19.58125 C26.3218,19.24464 25.8267,19.07693 25.234,19.07693 C24.592,19.07693 24.0907,19.2555 23.7363,19.61262 Z M27.4899,17.49401 C28.1603,17.78599 28.7122,18.24928 29.1469,18.88149 C29.5432,19.43889 29.7975,20.08557 29.9136,20.82033 C29.9815,21.24984 30.0087,21.87239 29.9976,22.68195 L23.0054,22.68195 C23.0474,23.6218 23.3783,24.2818 24.0104,24.6594 C24.3932,24.8947 24.8537,25.0129 25.3945,25.0129 C25.9638,25.0129 26.4293,24.8693 26.7861,24.5834 C26.9824,24.4277 27.1553,24.213 27.3034,23.9379 L29.8655,23.9379 C29.7976,24.4929 29.4864,25.0587 28.9357,25.633 C28.0764,26.5439 26.8725,27 25.3254,27 C24.0475,27 22.9202,26.6163 21.946,25.8466 C20.9669,25.0781 20.4804,23.8257 20.4804,22.09318 C20.4804,20.46803 20.9212,19.22172 21.8015,18.35425 C22.6844,17.48919 23.8265,17.05365 25.2328,17.05365 C26.0687,17.05365 26.8207,17.20084 27.4899,17.49401 Z M11.58673,21.09782 L11.58673,24.4796 L14.73773,24.4796 C15.30076,24.4796 15.74033,24.4048 16.05271,24.2564 C16.62191,23.9789 16.90589,23.4529 16.90589,22.6735 C16.90589,22.01234 16.63178,21.5599 16.07987,21.31257 C15.77119,21.17503 15.33781,21.10264 14.78219,21.09782 L11.58673,21.09782 Z M11.58673,16.20186 L11.58673,18.99972 L14.74267,18.99972 C15.30446,18.99972 15.76255,18.89476 16.11567,18.68483 C16.46633,18.4749 16.6429,18.10329 16.6429,17.57243 C16.6429,16.98004 16.41076,16.59035 15.94651,16.39972 C15.54399,16.26822 15.03283,16.20186 14.41176,16.20186 L11.58673,16.20186 Z M18.63448,15.35128 C19.0308,15.89058 19.2296,16.53485 19.2296,17.2865 C19.2296,18.05986 19.0308,18.68362 18.62956,19.15415 C18.40484,19.41717 18.07517,19.65847 17.63931,19.87564 C18.30112,20.11211 18.79993,20.48492 19.1395,20.99527 C19.4753,21.50441 19.6445,22.12455 19.6445,22.85327 C19.6445,23.6049 19.4519,24.2794 19.0654,24.8754 C18.82093,25.2699 18.51472,25.6029 18.14677,25.8731 C17.73314,26.1832 17.24543,26.3943 16.68116,26.5102 C16.1169,26.6248 15.50695,26.6803 14.84761,26.6803 L9,26.6803 L9,14 L15.27112,14 C16.85402,14.022923 17.9739,14.472948 18.63448,15.35128 Z" id="Shape" fill="#F4F4F4"></path>
            <path d="M22.4189,56.16928 L27.9801,56.16928 L27.9801,54.59118 L22.4189,54.59118 L22.4189,56.16928 Z M23.7363,59.61262 C23.382,59.96975 23.1585,60.45355 23.0671,61.06404 L27.3923,61.06404 C27.3466,60.41253 27.1219,59.92028 26.7243,59.58125 C26.3218,59.24464 25.8267,59.07693 25.234,59.07693 C24.592,59.07693 24.0907,59.2555 23.7363,59.61262 Z M27.4899,57.49401 C28.1603,57.78599 28.7122,58.24928 29.1469,58.88149 C29.5432,59.43889 29.7975,60.08557 29.9136,60.82033 C29.9815,61.24984 30.0087,61.87239 29.9976,62.68195 L23.0054,62.68195 C23.0474,63.6218 23.3783,64.2818 24.0104,64.6594 C24.3932,64.8947 24.8537,65.0129 25.3945,65.0129 C25.9638,65.0129 26.4293,64.8693 26.7861,64.5834 C26.9824,64.4277 27.1553,64.213 27.3034,63.9379 L29.8655,63.9379 C29.7976,64.4929 29.4864,65.0587 28.9357,65.633 C28.0764,66.5439 26.8725,67 25.3254,67 C24.0475,67 22.9202,66.6163 21.946,65.8466 C20.9669,65.0781 20.4804,63.8257 20.4804,62.09318 C20.4804,60.46803 20.9212,59.22172 21.8015,58.35425 C22.6844,57.48919 23.8265,57.05365 25.2328,57.05365 C26.0687,57.05365 26.8207,57.20084 27.4899,57.49401 Z M11.58673,61.09782 L11.58673,64.4796 L14.73773,64.4796 C15.30076,64.4796 15.74033,64.4048 16.05271,64.2564 C16.62191,63.9789 16.90589,63.4529 16.90589,62.6735 C16.90589,62.01234 16.63178,61.5599 16.07987,61.31257 C15.77119,61.17503 15.33781,61.10264 14.78219,61.09782 L11.58673,61.09782 Z M11.58673,56.20186 L11.58673,58.99972 L14.74267,58.99972 C15.30446,58.99972 15.76255,58.89476 16.11567,58.68483 C16.46633,58.4749 16.6429,58.10329 16.6429,57.57243 C16.6429,56.98004 16.41076,56.59035 15.94651,56.39972 C15.54399,56.26822 15.03283,56.20186 14.41176,56.20186 L11.58673,56.20186 Z M18.63448,55.35128 C19.0308,55.89058 19.2296,56.53485 19.2296,57.2865 C19.2296,58.05986 19.0308,58.68362 18.62956,59.15415 C18.40484,59.41717 18.07517,59.65847 17.63931,59.87564 C18.30112,60.11211 18.79993,60.48492 19.1395,60.99527 C19.4753,61.50441 19.6445,62.12455 19.6445,62.85327 C19.6445,63.6049 19.4519,64.2794 19.0654,64.8754 C18.82093,65.2699 18.51472,65.6029 18.14677,65.8731 C17.73314,66.1832 17.24543,66.3943 16.68116,66.5102 C16.1169,66.6248 15.50695,66.6803 14.84761,66.6803 L9,66.6803 L9,54 L15.27112,54 C16.85402,54.022923 17.9739,54.472948 18.63448,55.35128 Z" id="Shape" fill="#2B2B4B"></path>
        </g>
    </g>
</svg>