<?xml version="1.0" encoding="UTF-8"?>
<svg width="56px" height="62px" viewBox="0 0 56 62" version="1.1" xmlns="http://www.w3.org/2000/svg" xmlns:xlink="http://www.w3.org/1999/xlink">
    <title>brand</title>
    <g id="Page-1" stroke="none" stroke-width="1" fill="none" fill-rule="evenodd">
        <g id="brand" fill-rule="nonzero">
            <path d="M30.8188,0.7443 L53.1812,13.4666 C54.9255,14.459 56,16.2929 56,18.2777 L56,43.7223 C56,45.7071 54.9255,47.541 53.1812,48.5334 L30.8188,61.2557 C29.0745,62.2481 26.9255,62.2481 25.1812,61.2557 L2.8188,48.5334 C1.0745,47.541 0,45.7071 0,43.7223 L0,18.2777 C0,16.2929 1.0745,14.459 2.8188,13.4666 L25.1812,0.7443 C26.9255,-0.2481 29.0745,-0.2481 30.8188,0.7443 Z" id="Path" fill="#FF0036"></path>
            <path d="M25.9435,13 L25.9435,18.4236 L13,18.4236 L13,41.4541 L17.1532,41.4541 L17.1532,39.1747 L25.9435,39.1747 L25.9435,49 L30.2177,49 L30.2177,39.1747 L38.8468,39.1747 L38.8468,41.179 L43,41.179 L43,18.4236 L30.2177,18.4236 L30.2177,13 L25.9435,13 Z M17.1532,35.3231 L17.1532,30.5677 L25.9435,30.5677 L25.9435,35.3231 L17.1532,35.3231 Z M30.2177,35.3231 L30.2177,30.5677 L38.8468,30.5677 L38.8468,35.3231 L30.2177,35.3231 Z M17.1532,26.9127 L17.1532,22.2358 L25.9435,22.2358 L25.9435,26.9127 L17.1532,26.9127 Z M30.2177,26.9127 L30.2177,22.2358 L38.8468,22.2358 L38.8468,26.9127 L30.2177,26.9127 Z" id="Shape" fill="#FFFFFF"></path>
            <polygon id="Path" fill="#FF0036" opacity="0.2" points="17.1532 18 17.1532 26.8898 38.8467 26.8898 38.8468 18 43 18 43 42 38.8468 42 38.8467 30.6941 17.1532 30.6941 17.1532 42 13 42 13 18"></polygon>
        </g>
    </g>
</svg>