<?xml version="1.0" encoding="UTF-8"?>
<svg width="40px" height="80px" viewBox="0 0 40 80" version="1.1" xmlns="http://www.w3.org/2000/svg" xmlns:xlink="http://www.w3.org/1999/xlink">
    <title>Group</title>
    <g id="Page-1" stroke="none" stroke-width="1" fill="none" fill-rule="evenodd">
        <g id="Group">
            <path d="M30,29 L25.8007,29 L25.8007,23.0238 C25.8007,21.45956 25.1439,20.39169 23.6994,20.39169 C22.5946,20.39169 21.9802,21.11232 21.6942,21.8068 C21.587,22.0561 21.6037,22.4033 21.6037,22.7506 L21.6037,29 L17.44356,29 C17.44356,29 17.49719,18.41378 17.44356,17.4515 L21.6037,17.4515 L21.6037,19.26395 C21.8495,18.47148 23.1788,17.34046 25.3003,17.34046 C27.9322,17.34046 30,19.00161 30,22.5786 L30,29 Z M13.23647,16.00698 L13.20967,16.00698 C11.869123,16.00698 11,15.12416 11,14.00512 C11,12.86431 11.894813,12 13.26217,12 C14.62841,12 15.46848,12.86214 15.49529,14.00186 C15.49529,15.1209 14.62841,16.00698 13.23647,16.00698 Z M11.479233,17.4515 L15.1825,17.4515 L15.1825,29 L11.479233,29 L11.479233,17.4515 Z" id="Shape" fill="#F4F4F4"></path>
            <path d="M30,69 L25.8007,69 L25.8007,63.0238 C25.8007,61.45956 25.1439,60.39169 23.6994,60.39169 C22.5946,60.39169 21.9802,61.11232 21.6942,61.8068 C21.587,62.0561 21.6037,62.4033 21.6037,62.7506 L21.6037,69 L17.44356,69 C17.44356,69 17.49719,58.41378 17.44356,57.4515 L21.6037,57.4515 L21.6037,59.26395 C21.8495,58.47148 23.1788,57.34046 25.3003,57.34046 C27.9322,57.34046 30,59.00161 30,62.5786 L30,69 Z M13.23647,56.00698 L13.20967,56.00698 C11.869123,56.00698 11,55.12416 11,54.00512 C11,52.86431 11.894813,52 13.26217,52 C14.62841,52 15.46848,52.86214 15.49529,54.00186 C15.49529,55.1209 14.62841,56.00698 13.23647,56.00698 Z M11.479233,57.4515 L15.1825,57.4515 L15.1825,69 L11.479233,69 L11.479233,57.4515 Z" id="Shape" fill="#2B2B4B"></path>
        </g>
    </g>
</svg>