<?xml version="1.0" encoding="UTF-8"?>
<svg width="40px" height="80px" viewBox="0 0 40 80" version="1.1" xmlns="http://www.w3.org/2000/svg" xmlns:xlink="http://www.w3.org/1999/xlink">
    <title>Group</title>
    <g id="Page-1" stroke="none" stroke-width="1" fill="none" fill-rule="evenodd">
        <g id="Group" fill-rule="nonzero">
            <path d="M27.3,14 L13.7,14 C12.765,14 12.0085,14.73125 12.0085,15.625 L12,25.375 C12,26.2688 12.765,27 13.7,27 L27.3,27 C28.235,27 29,26.2688 29,25.375 L29,15.625 C29,14.73125 28.235,14 27.3,14 Z M26.45,25.375 L14.55,25.375 C14.0825,25.375 13.7,25.0094 13.7,24.5625 L13.7,17.25 L19.599,20.77625 C20.1515,21.10938 20.8485,21.10938 21.401,20.77625 L27.3,17.25 L27.3,24.5625 C27.3,25.0094 26.9175,25.375 26.45,25.375 Z M20.5,19.6875 L13.7,15.625 L27.3,15.625 L20.5,19.6875 Z" id="Shape" fill="#F4F4F4"></path>
            <path d="M27.3,54 L13.7,54 C12.765,54 12.0085,54.73125 12.0085,55.625 L12,65.375 C12,66.2688 12.765,67 13.7,67 L27.3,67 C28.235,67 29,66.2688 29,65.375 L29,55.625 C29,54.73125 28.235,54 27.3,54 Z M26.45,65.375 L14.55,65.375 C14.0825,65.375 13.7,65.0094 13.7,64.5625 L13.7,57.25 L19.599,60.77625 C20.1515,61.10938 20.8485,61.10938 21.401,60.77625 L27.3,57.25 L27.3,64.5625 C27.3,65.0094 26.9175,65.375 26.45,65.375 Z M20.5,59.6875 L13.7,55.625 L27.3,55.625 L20.5,59.6875 Z" id="Shape" fill="#2B2B4B"></path>
        </g>
    </g>
</svg>