<?xml version="1.0" encoding="UTF-8"?>
<svg width="56px" height="62px" viewBox="0 0 56 62" version="1.1" xmlns="http://www.w3.org/2000/svg" xmlns:xlink="http://www.w3.org/1999/xlink">
    <title>inverted</title>
    <g id="Page-1" stroke="none" stroke-width="1" fill="none" fill-rule="evenodd">
        <g id="inverted" fill-rule="nonzero">
            <path d="M30.8188,0.744 L53.1812,13.467 C54.9255,14.459 56,16.293 56,18.278 L56,43.722 C56,45.707 54.9255,47.541 53.1812,48.533 L30.8188,61.256 C29.0745,62.248 26.9255,62.248 25.1812,61.256 L2.8188,48.533 C1.0745,47.541 0,45.707 0,43.722 L0,18.278 C0,16.293 1.0745,14.459 2.8188,13.467 L25.1812,0.744 C26.9255,-0.248 29.0745,-0.248 30.8188,0.744 Z" id="Path" fill="#2B2B4B"></path>
            <path d="M25.9435,13 L25.9435,18.424 L13,18.424 L13,41.454 L17.1532,41.454 L17.1532,39.175 L25.9435,39.175 L25.9435,49 L30.2177,49 L30.2177,39.175 L38.8468,39.175 L38.8468,41.179 L43,41.179 L43,18.424 L30.2177,18.424 L30.2177,13 L25.9435,13 Z M17.1532,35.323 L17.1532,30.568 L25.9435,30.568 L25.9435,35.323 L17.1532,35.323 Z M30.2177,35.323 L30.2177,30.568 L38.8468,30.568 L38.8468,35.323 L30.2177,35.323 Z M17.1532,26.913 L17.1532,22.236 L25.9435,22.236 L25.9435,26.913 L17.1532,26.913 Z M30.2177,26.913 L30.2177,22.236 L38.8468,22.236 L38.8468,26.913 L30.2177,26.913 Z" id="Shape" fill="#F4F4F4"></path>
            <polygon id="Path" fill="#2B2B4B" opacity="0.2" points="17.1532 18 17.1532 26.89 38.8467 26.89 38.8468 18 43 18 43 42 38.8468 42 38.8467 30.694 17.1532 30.694 17.1532 42 13 42 13 18"></polygon>
        </g>
    </g>
</svg>