<?xml version="1.0" encoding="UTF-8"?>
<svg width="40px" height="80px" viewBox="0 0 40 80" version="1.1" xmlns="http://www.w3.org/2000/svg" xmlns:xlink="http://www.w3.org/1999/xlink">
    <title>Group</title>
    <g id="Page-1" stroke="none" stroke-width="1" fill="none" fill-rule="evenodd">
        <g id="Group-5" transform="translate(-439.000000, -265.000000)" fill-rule="nonzero">
            <g id="Group" transform="translate(439.000000, 265.000000)">
                <path d="M19.99925,8 C13.373,8 8,13.5083023 8,20.3046693 C8,25.7399171 11.438,30.3515728 16.20725,31.9787636 C16.80725,32.0918056 17.02625,31.7119229 17.02625,31.3858696 C17.02625,31.0936518 17.01575,30.3200439 17.00975,29.2934373 C13.6715,30.0370543 12.96725,27.6439459 12.96725,27.6439459 C12.422,26.2228451 11.63525,25.8445004 11.63525,25.8445004 C10.5455,25.0808894 11.71775,25.0962693 11.71775,25.0962693 C12.9215,25.1831656 13.55525,26.3643399 13.55525,26.3643399 C14.62625,28.2445301 16.364,27.7016204 17.048,27.386333 C17.15675,26.5911936 17.46725,26.049053 17.81,25.7414552 C15.14525,25.4307818 12.344,24.3757224 12.344,19.6610215 C12.344,18.3175893 12.81125,17.2194662 13.57925,16.3589621 C13.4555,16.0475197 13.04375,14.797136 13.69625,13.1030424 C13.69625,13.1030424 14.70425,12.7723755 16.99625,14.3641923 C17.954,14.0911995 18.98,13.9550878 20.00075,13.9497047 C21.02,13.9550878 22.04675,14.0911995 23.00525,14.3641923 C25.29575,12.7723755 26.3015,13.1030424 26.3015,13.1030424 C26.95625,14.797136 26.5445,16.0475197 26.42075,16.3589621 C27.19025,17.2194662 27.6545,18.3175893 27.6545,19.6610215 C27.6545,24.3872572 24.84875,25.4277057 22.17575,25.7322274 C22.60625,26.1121101 22.99025,26.8626484 22.99025,28.0107558 C22.99025,29.6556336 22.97525,30.9821478 22.97525,31.3858696 C22.97525,31.714999 23.19125,32.0979578 23.80025,31.9772256 C28.565,30.3469587 32,25.7383791 32,20.3046693 C32,13.5083023 26.627,8 19.99925,8" id="Github" fill="#F4F4F4"></path>
                <path d="M19.99925,48 C13.373,48 8,53.5083023 8,60.3046693 C8,65.7399171 11.438,70.3515728 16.20725,71.9787636 C16.80725,72.0918056 17.02625,71.7119229 17.02625,71.3858696 C17.02625,71.0936518 17.01575,70.3200439 17.00975,69.2934373 C13.6715,70.0370543 12.96725,67.6439459 12.96725,67.6439459 C12.422,66.2228451 11.63525,65.8445004 11.63525,65.8445004 C10.5455,65.0808894 11.71775,65.0962693 11.71775,65.0962693 C12.9215,65.1831656 13.55525,66.3643399 13.55525,66.3643399 C14.62625,68.2445301 16.364,67.7016204 17.048,67.386333 C17.15675,66.5911936 17.46725,66.049053 17.81,65.7414552 C15.14525,65.4307818 12.344,64.3757224 12.344,59.6610215 C12.344,58.3175893 12.81125,57.2194662 13.57925,56.3589621 C13.4555,56.0475197 13.04375,54.797136 13.69625,53.1030424 C13.69625,53.1030424 14.70425,52.7723755 16.99625,54.3641923 C17.954,54.0911995 18.98,53.9550878 20.00075,53.9497047 C21.02,53.9550878 22.04675,54.0911995 23.00525,54.3641923 C25.29575,52.7723755 26.3015,53.1030424 26.3015,53.1030424 C26.95625,54.797136 26.5445,56.0475197 26.42075,56.3589621 C27.19025,57.2194662 27.6545,58.3175893 27.6545,59.6610215 C27.6545,64.3872572 24.84875,65.4277057 22.17575,65.7322274 C22.60625,66.1121101 22.99025,66.8626484 22.99025,68.0107558 C22.99025,69.6556336 22.97525,70.9821478 22.97525,71.3858696 C22.97525,71.714999 23.19125,72.0979578 23.80025,71.9772256 C28.565,70.3469587 32,65.7383791 32,60.3046693 C32,53.5083023 26.627,48 19.99925,48" id="Github" fill="#2B2B4B"></path>
            </g>
        </g>
    </g>
</svg>