<?xml version="1.0" encoding="UTF-8"?>
<svg width="153px" height="75px" viewBox="0 0 153 75" version="1.1" xmlns="http://www.w3.org/2000/svg" xmlns:xlink="http://www.w3.org/1999/xlink">
    <title>Slice</title>
    <g id="Page-1" stroke="none" stroke-width="1" fill="none" fill-rule="evenodd">
        <g id="Group-10" transform="translate(-67.000000, -71.000000)" fill-rule="nonzero">
            <g id="Group-25" transform="translate(82.708500, 84.158000)">
                <polygon id="Path" fill="#2D2E87" points="14.5342 32.135 14.5342 14.685 18.8785 12.838 18.8785 28.194 25.4355 28.194 27.1175 32.135"></polygon>
                <path d="M42.3965,32.134 L42.3965,17.947 L46.5995,17.947 L46.5995,19.89 C47.2485,18.454 48.7705,17.637 50.7175,17.637 C50.9995,17.637 51.8945,17.696 52.7215,17.848 L51.1375,21.564 C49.5695,21 46.5995,21.955 46.5995,25.209 L46.5995,32.134 L42.3965,32.134 Z" id="Path" fill="#2D2E87"></path>
                <path d="M57.2825,23.403 C57.3955,22.084 58.8905,21.046 60.7235,21.046 C62.4155,21.046 63.7975,22.084 63.7975,23.403 L57.2825,23.403 Z M53.0235,25.125 C53.0235,27.35 53.7285,29.123 55.1675,30.474 C56.6065,31.797 58.4665,32.473 60.8075,32.473 C63.2055,32.473 65.2645,31.6 66.9275,29.883 L64.4745,27.546 C63.4885,28.475 62.3305,28.925 61.0055,28.925 C58.7775,28.925 57.3105,27.828 57.2255,26.139 L67.9725,26.139 C67.9995,25.717 68.0285,25.266 68.0285,24.788 C68.0285,22.732 67.3505,21.043 65.9965,19.664 C64.6445,18.284 62.8945,17.581 60.7235,17.581 C58.4955,17.581 56.6345,18.256 55.1955,19.636 C53.7565,20.988 53.0235,22.789 53.0235,25.013 L53.0235,25.125 Z" id="Shape" fill="#2D2E87"></path>
                <path d="M88.4905,27.68 C87.7855,26.977 87.4195,26.077 87.4195,25.036 C87.4195,23.996 87.7855,23.124 88.4905,22.421 C89.1965,21.69 90.0715,21.325 91.1135,21.325 C92.1575,21.325 93.0315,21.69 93.7375,22.421 C94.4415,23.124 94.8095,23.997 94.8095,25.036 C94.8095,26.077 94.4415,26.949 93.7375,27.68 C93.0315,28.383 92.1575,28.749 91.1135,28.749 C90.0715,28.749 89.1965,28.383 88.4905,27.68 Z M96.6985,19.72 C95.1465,18.257 93.2855,17.525 91.1135,17.525 C88.9145,17.525 87.0525,18.256 85.5015,19.72 C83.9795,21.156 83.2175,22.929 83.2175,25.04 C83.2175,27.152 83.9795,28.925 85.5015,30.389 C87.0535,31.825 88.9145,32.556 91.1135,32.556 C93.2855,32.556 95.1465,31.825 96.6985,30.389 C98.2495,28.925 99.0115,27.152 99.0115,25.04 C99.0115,22.929 98.2495,21.156 96.6985,19.72 Z" id="Shape" fill="#2D2E87"></path>
                <path d="M36.4965,17.95 C35.4975,20.253 33.9945,23.73 33.2595,25.474 C33.1425,25.751 32.9975,26.082 32.8275,26.451 L29.1475,17.886 L25.4835,19.455 L30.3705,30.83 C29.6265,31.912 28.7655,32.97 27.8005,33.84 L29.4395,37.646 C33.2535,34.769 35.7455,29.835 36.9335,27.018 C37.8665,24.808 40.0505,19.77 40.8405,17.95 L36.4965,17.95 Z" id="Path" fill="#2D2E87"></path>
                <path d="M77.5055,28.704 C75.4745,28.704 73.8675,27.156 73.8675,25.017 C73.8675,22.877 75.4465,21.3 77.5055,21.3 C78.7715,21.3 79.8415,21.777 80.7705,22.759 L82.3255,19.12 C80.9425,18.038 79.3365,17.501 77.5055,17.501 C75.3055,17.501 73.4445,18.232 71.9215,19.668 C70.4255,21.104 69.6645,22.877 69.6645,25.017 C69.6645,27.156 70.4255,28.929 71.9215,30.365 C73.4445,31.801 75.3055,32.505 77.5055,32.505 C79.3065,32.505 80.8905,31.986 82.2585,30.938 L80.7085,27.309 C79.7935,28.247 78.7435,28.704 77.5055,28.704" id="Path" fill="#2D2E87"></path>
                <path d="M42.5065,0 C23.0745,1.881 7.2213,7.776 0,15.533 L4.0049,24.941 L4.025,24.95 C4.0475,13.135 20.3665,3.201 42.5065,0.301 L42.5065,0 Z" id="Path" fill="#9BC31C"></path>
                <path d="M107.6955,24.952 L107.6965,24.977 C107.6965,36.802 91.3695,46.749 69.2135,49.65 L69.2135,49.952 C88.6495,48.07 104.5045,42.174 111.7235,34.415 L107.6955,24.952 Z" id="Path" fill="#9BC31C"></path>
            </g>
        </g>
    </g>
</svg>