<?xml version="1.0" encoding="UTF-8"?>
<svg width="153px" height="75px" viewBox="0 0 153 75" version="1.1" xmlns="http://www.w3.org/2000/svg" xmlns:xlink="http://www.w3.org/1999/xlink">
    <title>Slice</title>
    <g id="Page-1" stroke="none" stroke-width="1" fill="none" fill-rule="evenodd">
        <g id="Group-11" transform="translate(-67.000000, -71.000000)" fill-rule="nonzero">
            <g id="Group-24" transform="translate(88.748000, 84.080000)">
                <polygon id="Path" fill="#004990" points="54.258 0 26.235 12.005 8.755 12.005 8.755 16.902 0 16.902 0 49.82 108.503 49.82 108.503 16.902 99.752 16.902 99.752 12.005 82.279 12.005"></polygon>
                <polygon id="Path" fill="#FFFFFF" points="80.133 20.76 80.131 26.081 83.574 26.087 84.291 20.761"></polygon>
                <path d="M98.746,25.371 C98.967,25.371 99.168,25.354 99.168,25.084 C99.168,24.871 98.971,24.831 98.788,24.831 L98.429,24.831 L98.429,25.371 L98.746,25.371 L98.746,25.371 Z M98.429,26.347 L98.167,26.347 L98.167,24.608 L98.829,24.608 C99.238,24.608 99.442,24.76 99.442,25.103 C99.442,25.415 99.249,25.55 98.993,25.582 L99.487,26.347 L99.192,26.347 L98.733,25.593 L98.429,25.593 L98.429,26.347 L98.429,26.347 Z M98.749,26.736 C99.431,26.736 99.969,26.202 99.969,25.474 C99.969,24.76 99.431,24.222 98.749,24.222 C98.057,24.222 97.519,24.76 97.519,25.474 C97.519,26.202 98.057,26.736 98.749,26.736 Z M97.215,25.474 C97.215,24.608 97.917,23.969 98.749,23.969 C99.571,23.969 100.275,24.608 100.275,25.474 C100.275,26.347 99.571,26.988 98.749,26.988 C97.917,26.988 97.215,26.347 97.215,25.474 Z" id="Shape" fill="#FFFFFF"></path>
                <polygon id="Path" fill="#FFFFFF" points="17.308 38.894 17.308 20.759 12.348 20.759 12.348 43.213 24.981 43.213 24.981 38.894"></polygon>
                <polygon id="Path" fill="#FFFFFF" points="67.232 43.214 79.037 43.214 79.037 38.889 72.216 38.889 72.216 36.071 79.037 36.071 79.037 31.908 72.216 31.908 72.216 29.074 79.037 29.074 79.037 24.732 67.232 24.732 67.232 24.753"></polygon>
                <path d="M36.316,29.075 L31.954,29.075 L31.954,38.871 L36.316,38.871 L36.316,29.075 Z M41.284,40.853 C41.284,42.156 40.228,43.214 38.924,43.214 L29.345,43.214 C28.042,43.214 26.986,42.156 26.986,40.853 L26.986,27.093 C26.986,25.789 28.042,24.732 29.345,24.732 L38.924,24.732 C40.228,24.732 41.284,25.789 41.284,27.093 L41.284,40.853 Z" id="Shape" fill="#FFFFFF"></path>
                <path d="M59.427,24.733 L59.427,38.895 L56.433,38.895 L56.433,24.733 L52.071,24.733 L52.071,38.895 L49.077,38.895 L49.077,24.733 L44.109,24.733 L44.109,40.852 C44.109,42.157 45.165,43.215 46.469,43.215 L52.342,43.215 C53.331,43.215 54.252,42.531 54.252,41.541 C54.252,42.531 55.173,43.215 56.163,43.215 L62.037,43.215 C63.339,43.215 64.396,42.157 64.396,40.852 L64.396,24.733 L59.427,24.733 L59.427,24.733 Z" id="Path" fill="#FFFFFF"></path>
                <path d="M96.451,36.23 L96.452,36.231 L96.422,36.167 C96.402,36.127 96.382,36.089 96.363,36.05 L96.332,35.989 C95.546,34.413 93.787,33.097 90.954,31.963 L90.853,31.925 C90.292,31.704 88.586,31.037 88.396,29.952 C88.344,29.648 88.467,29.17 88.806,28.88 C89.163,28.517 89.71,28.33 90.432,28.33 C91.587,28.33 92.9,28.803 93.581,29.084 C95.015,29.678 96.271,30.209 96.284,30.216 L96.408,30.268 L96.408,26.234 L96.367,26.208 C96.34,26.19 93.63,24.481 90.893,24.089 C90.578,24.062 90.267,24.049 89.967,24.049 C87.447,24.049 85.538,24.964 84.295,26.77 C83.251,28.254 83.136,30.602 84.023,32.355 C85.165,34.335 86.994,35.162 88.765,35.963 C89.495,36.292 90.25,36.635 90.957,37.055 L90.964,37.06 C91.763,37.54 92.171,38.274 92.002,38.926 C91.827,39.603 91.054,40.057 90.076,40.057 C89.943,40.057 89.807,40.05 89.675,40.031 L89.628,40.025 C87.748,39.764 83.936,38.344 83.898,38.329 L83.777,38.283 L83.777,42.707 L83.839,42.728 C83.874,42.74 87.564,43.962 90.839,43.962 L90.841,43.962 C92.628,43.962 93.977,43.602 94.85,42.893 C94.871,42.878 96.873,41.269 96.961,38.531 C96.985,37.774 96.813,36.999 96.45,36.23" id="Path" fill="#FFFFFF"></path>
            </g>
        </g>
    </g>
</svg>