<?xml version="1.0" encoding="UTF-8"?>
<svg width="287px" height="173px" viewBox="0 0 287 173" version="1.1" xmlns="http://www.w3.org/2000/svg" xmlns:xlink="http://www.w3.org/1999/xlink">
    <title>LOGO</title>
    <g id="Page-1" stroke="none" stroke-width="1" fill="none" fill-rule="evenodd">
        <g id="LOGO" transform="translate(1.000000, 1.000000)" fill="#F4F4F4" fill-rule="nonzero">
            <path d="M41.9287,105.284 L41.9287,91.4645 C43.4172,90.7608 45.2617,90.4089 47.4621,90.4089 C49.533,90.4089 51.0863,90.9527 52.1218,92.0403 C53.2867,90.9527 54.8723,90.4089 56.8785,90.4089 C60.2438,90.4089 61.9265,91.9124 61.9265,94.9193 L61.9265,105.284 L58.5288,105.284 L58.5288,94.9193 C58.5288,93.3199 57.7198,92.5201 56.1019,92.5201 C55.1311,92.5201 54.2898,92.872 53.5779,93.5758 L53.5779,105.284 L50.2773,105.284 L50.2773,94.8233 C50.2773,93.2879 49.3389,92.5201 47.4621,92.5201 C46.6855,92.5201 45.9412,92.6481 45.2293,92.904 L45.2293,105.284 L41.9287,105.284 Z M65.6154,97.9902 C65.6154,103.044 67.6864,105.571 71.8283,105.571 C75.9055,105.571 77.9442,103.044 77.9442,97.9902 C77.9442,92.936 75.9055,90.4089 71.8283,90.4089 C67.6864,90.4089 65.6154,92.936 65.6154,97.9902 Z M68.916,97.9902 C68.916,94.3435 69.8868,92.5201 71.8283,92.5201 C73.7051,92.5201 74.6435,94.3435 74.6435,97.9902 C74.6435,101.573 73.7051,103.364 71.8283,103.364 C69.8868,103.364 68.916,101.573 68.916,97.9902 Z M79.8857,90.6968 L83.4775,90.6968 L86.0986,100.101 C86.2927,100.805 86.3898,101.477 86.3898,102.117 L86.4869,102.117 C86.5516,101.541 86.6811,100.869 86.8752,100.101 L89.4963,90.6968 L92.6998,90.6968 L87.9431,105.284 L84.7395,105.284 L79.8857,90.6968 Z M94.6413,97.9902 C94.6413,103.044 96.9388,105.571 101.534,105.571 C103.54,105.571 105.158,105.22 106.388,104.516 L105.611,102.501 C104.576,103.012 103.314,103.268 101.825,103.268 C99.3657,103.268 98.0067,101.733 97.7478,98.6619 L106.873,98.6619 C106.873,98.2781 106.873,97.8942 106.873,97.5103 C106.873,92.7761 104.899,90.4089 100.951,90.4089 C96.7447,90.4089 94.6413,92.936 94.6413,97.9902 Z M97.6507,96.5507 C97.7801,93.7997 98.848,92.4242 100.854,92.4242 C102.796,92.4242 103.767,93.7997 103.767,96.5507 L97.6507,96.5507 Z M102.213,85.0349 C102.213,83.8193 102.828,83.2435 104.058,83.3075 C105.158,83.3715 105.676,83.9473 105.611,85.0349 C105.546,86.1225 104.964,86.6343 103.864,86.5703 C102.763,86.5063 102.213,85.9945 102.213,85.0349 Z M107.358,77.7415 C107.358,77.4856 107.423,77.2297 107.553,76.9738 C108.006,75.9502 108.75,75.6303 109.785,76.0142 C110.821,76.462 111.112,77.1977 110.659,78.2213 C110.271,79.181 109.559,79.4689 108.523,79.085 C107.747,78.8291 107.358,78.3813 107.358,77.7415 Z M109.397,101.157 C109.397,104.1 111.436,105.571 115.513,105.571 C117.713,105.571 119.493,105.22 120.852,104.516 L120.852,95.4951 C120.852,92.1043 119.04,90.4089 115.416,90.4089 C113.539,90.4089 111.824,90.7928 110.271,91.5605 L111.047,93.3838 C112.277,92.808 113.507,92.5201 114.736,92.5201 C116.742,92.5201 117.746,93.3199 117.746,94.9193 L117.746,95.687 C112.18,96.2628 109.397,98.0861 109.397,101.157 Z M112.601,101.061 C112.601,98.9498 114.316,97.7023 117.746,97.3184 L117.746,103.364 C117.163,103.62 116.484,103.748 115.707,103.748 C113.636,103.748 112.601,102.852 112.601,101.061 Z M115.319,73.5191 C114.866,73.1352 114.639,72.7513 114.639,72.3675 C114.639,71.9836 114.833,71.5998 115.222,71.2159 C115.933,70.3842 116.71,70.3202 117.551,71.024 C118.393,71.7277 118.457,72.4954 117.746,73.3271 C116.969,74.1588 116.16,74.2228 115.319,73.5191 Z M123.376,69.4885 C123.376,68.9767 123.7,68.5289 124.347,68.145 C124.67,67.9531 124.994,67.8571 125.318,67.8571 C125.835,67.8571 126.256,68.177 126.58,68.8168 C127.162,69.7764 126.968,70.5122 125.997,71.024 C125.026,71.5998 124.25,71.4078 123.667,70.4482 C123.473,70.1283 123.376,69.8084 123.376,69.4885 Z M124.929,104.516 C126.029,105.22 127.647,105.571 129.783,105.571 C134.572,105.571 136.967,102.948 136.967,97.7023 C136.967,92.904 135.025,90.5049 131.142,90.5049 C130.042,90.5049 129.071,90.6968 128.23,91.0807 L128.23,83.9793 L124.929,83.9793 L124.929,104.516 Z M128.23,103.268 L128.23,92.808 C128.748,92.5521 129.427,92.4242 130.268,92.4242 C132.534,92.4242 133.666,94.2475 133.666,97.8942 C133.666,101.669 132.404,103.556 129.88,103.556 C129.233,103.556 128.683,103.46 128.23,103.268 Z M132.598,69.7764 C132.598,68.9447 133.051,68.4329 133.957,68.241 C134.087,68.241 134.249,68.241 134.443,68.241 C135.219,68.241 135.705,68.6888 135.899,69.5845 C136.093,70.6721 135.64,71.3119 134.54,71.5038 C133.245,71.6957 132.598,71.1199 132.598,69.7764 Z M140.462,105.284 L143.762,105.284 L143.762,83.9793 L140.462,83.9793 L140.462,105.284 Z M141.044,73.1352 C141.044,72.0476 141.529,71.5038 142.5,71.5038 C142.63,71.5038 142.791,71.5038 142.986,71.5038 C144.086,71.6317 144.539,72.2395 144.345,73.3271 C144.215,74.4147 143.6,74.8946 142.5,74.7666 C141.529,74.5747 141.044,74.0309 141.044,73.1352 Z M147.257,91.5605 C147.257,96.6147 149.554,99.1417 154.149,99.1417 C156.156,99.1417 157.806,98.8219 159.1,98.1821 L158.227,96.0709 C157.191,96.5827 155.961,96.8386 154.538,96.8386 C152.014,96.8386 150.655,95.3351 150.46,92.3282 L159.489,92.3282 C159.489,91.9444 159.489,91.5605 159.489,91.1766 C159.489,86.3784 157.515,83.9793 153.567,83.9793 C149.36,83.9793 147.257,86.5063 147.257,91.5605 Z M147.936,79.085 C147.936,78.7651 148.034,78.4453 148.228,78.1254 C148.551,77.4216 149.004,77.0698 149.587,77.0698 C149.846,77.0698 150.137,77.1657 150.46,77.3577 C151.431,77.8695 151.69,78.6052 151.237,79.5649 C150.719,80.5885 149.943,80.8444 148.907,80.3326 C148.26,80.0127 147.936,79.5968 147.936,79.085 Z M150.266,90.217 C150.46,87.402 151.528,85.9945 153.47,85.9945 C155.411,85.9945 156.382,87.402 156.382,90.217 L150.266,90.217 Z M167.158,97.9902 C167.158,92.936 169.196,90.4089 173.273,90.4089 C177.415,90.4089 179.486,92.936 179.486,97.9902 C179.486,103.044 177.415,105.571 173.273,105.571 C169.196,105.571 167.158,103.044 167.158,97.9902 Z M170.458,97.9902 C170.458,101.573 171.397,103.364 173.273,103.364 C175.15,103.364 176.089,101.573 176.089,97.9902 C176.089,94.3435 175.15,92.5201 173.273,92.5201 C171.397,92.5201 170.458,94.3435 170.458,97.9902 Z M182.69,105.284 L182.69,91.4645 C184.243,90.7608 186.185,90.4089 188.514,90.4089 C192.398,90.4089 194.339,91.9124 194.339,94.9193 L194.339,105.284 L191.038,105.284 L191.038,94.9193 C191.038,93.3199 190.165,92.5201 188.417,92.5201 C187.576,92.5201 186.799,92.6481 186.088,92.904 L186.088,105.284 L182.69,105.284 Z M198.125,105.284 L198.125,90.6968 L201.62,90.6968 L201.62,102.98 L205.406,102.98 L205.406,105.284 L198.125,105.284 Z M208.221,105.284 L211.91,105.284 L211.91,90.6968 L208.221,90.6968 L208.221,105.284 Z M215.89,105.284 L215.89,91.4645 C217.443,90.7608 219.385,90.4089 221.715,90.4089 C225.662,90.4089 227.636,91.9124 227.636,94.9193 L227.636,105.284 L224.239,105.284 L224.239,94.9193 C224.239,93.3199 223.365,92.5201 221.618,92.5201 C220.776,92.5201 220,92.6481 219.288,92.904 L219.288,105.284 L215.89,105.284 Z M230.84,97.9902 C230.84,103.044 233.105,105.571 237.635,105.571 C239.642,105.571 241.292,105.22 242.586,104.516 L241.712,102.501 C240.677,103.012 239.447,103.268 238.024,103.268 C235.5,103.268 234.14,101.733 233.946,98.6619 L243.072,98.6619 C243.072,98.2781 243.072,97.8942 243.072,97.5103 C243.072,92.7761 241.098,90.4089 237.15,90.4089 C232.943,90.4089 230.84,92.936 230.84,97.9902 Z M233.849,96.5507 C233.979,93.7997 235.047,92.4242 237.053,92.4242 C238.994,92.4242 239.965,93.7997 239.965,96.5507 L233.849,96.5507 Z" id="Shape"></path>
        </g>
    </g>
</svg>