<?xml version="1.0" encoding="UTF-8"?>
<svg width="287px" height="173px" viewBox="0 0 287 173" version="1.1" xmlns="http://www.w3.org/2000/svg" xmlns:xlink="http://www.w3.org/1999/xlink">
    <title>LOGO</title>
    <g id="Page-1" stroke="none" stroke-width="1" fill="none" fill-rule="evenodd">
        <g id="LOGO" fill="#F4F4F4" fill-rule="nonzero">
            <g id="r-labs-logo-dark" transform="translate(81.000000, 54.000000)">
                <path d="M109.46855,34.8809587 C109.46855,33.6809231 108.500642,32.9798628 106.504493,32.9798628 L102.491656,32.9798628 L102.491656,36.8207253 L106.689346,36.8207253 C108.418486,36.8207253 109.46855,36.1608304 109.46855,34.8809587 M108.664955,28.9805756 C108.664955,27.8391696 107.759949,27.1805222 106.133505,27.1805222 L102.491656,27.1805222 L102.491656,30.9003831 L105.948652,30.9003831 C107.575096,30.9003831 108.664955,30.2804063 108.664955,28.9805756 M111.19769,28.5801479 C111.19769,30.3003653 110.209242,31.1798093 109.138639,31.7199501 C110.825418,32.2800499 112,33.2193709 112,35.1404259 C112,37.6602513 109.880616,39 106.67009,39 L100,39 L100,25 L106.463414,25 C109.365854,25 111.19769,26.3796668 111.19769,28.5801479" id="Fill-89"></path>
                <path d="M120.432912,30.9109494 C123.436709,31.6107068 125,32.6415454 125,34.9166667 C125,37.4828482 122.910126,39 119.926582,39 C117.75443,39 115.703798,38.2808385 114,36.8218988 L115.501266,35.1107068 C116.86076,36.2385655 118.221519,36.8801109 119.986076,36.8801109 C121.53038,36.8801109 122.503797,36.1997574 122.503797,35.1495149 C122.503797,34.1586972 121.934177,33.6335759 119.296202,33.0502426 C116.273418,32.3504851 114.568354,31.4942827 114.568354,28.9669093 C114.568354,26.5935551 116.597469,25 119.418987,25 C121.488608,25 123.131645,25.6015246 124.574683,26.711192 L123.234177,28.519404 C121.955697,27.6049896 120.677215,27.1186764 119.379747,27.1186764 C117.917721,27.1186764 117.064557,27.8390506 117.064557,28.7522522 C117.064557,29.8218988 117.713924,30.288808 120.432912,30.9109494" id="Fill-91"></path>
                <polygon id="Fill-87" points="92.9450074 33.4799787 90.4587556 27.9188468 87.9931257 33.4799787 87.0677094 35.6438868 85.5893619 39 83 39 89.3284071 25 91.6728818 25 98 39 95.329438 39 93.8704245 35.6438868"></polygon>
                <polygon id="Fill-88" points="71 25 73.5050813 25 73.5050813 36.7596008 81 36.7596008 81 39 71 39"></polygon>
                <path d="M28,0 L56,16.249679 L56,48.750321 L28,65 L0,48.750321 L0,16.249679 L28,0 Z M20,21 L14,21 L14,45 L20,45 L20,43.9023486 L15.3399697,43.9023486 L15.3399697,22.0976514 L20,22.0976514 L20,21 Z M42,20 L36,20 L36,21.0976514 L40.6600303,21.0976514 L40.6600303,42.9023486 L36,42.9023486 L36,44 L42,44 L42,20 Z M28.8776914,25 L22,25 L22,40 L25.3091142,40 L25.3091142,27.9778193 L28.5964998,27.9778193 C30.2095172,27.9778193 31.1962442,28.7057024 31.1962442,30.1206765 L31.1962442,30.164018 C31.1962442,31.4285714 30.2721463,32.2852044 28.6616851,32.2852044 L27.0972373,32.2852044 L27.0972373,35.1980114 L27.9088586,35.1980114 L31.1310589,40 L35,40 L31.3253367,34.6422198 C33.2374398,33.9347327 34.5475371,32.4139543 34.5475371,29.9932013 L34.5475371,29.9511346 C34.5475371,26.8636866 32.4219841,25 28.8776914,25 Z M45.5313225,22 L44,22 L44,29 L49,29 L49,27.5997407 L45.5313225,27.5997407 L45.5313225,22 Z" id="Combined-Shape"></path>
            </g>
        </g>
    </g>
</svg>