<?xml version="1.0" encoding="UTF-8"?>
<svg width="153px" height="75px" viewBox="0 0 153 75" version="1.1" xmlns="http://www.w3.org/2000/svg" xmlns:xlink="http://www.w3.org/1999/xlink">
    <title>Slice</title>
    <g id="Page-1" stroke="none" stroke-width="1" fill="none" fill-rule="evenodd">
        <g id="Group-16" transform="translate(-67.000000, -71.000000)" fill="#000000" fill-rule="nonzero">
            <path d="M129,115.8958 C129,114.5417 130.25,113.5417 131.584,113.8333 L139,115.5 L139,93.125 C139,91.3958 140.396,90 142.125,90 C143.854,90 145.25,91.3958 145.25,93.125 L145.25,105.625 L147.146,105.625 C147.792,105.625 148.438,105.7708 149,106.0625 L157.521,110.3125 C159.125,111.1042 160.042,112.8542 159.792,114.625 L158.479,123.917 C158.188,125.979 156.417,127.5 154.354,127.5 L141.521,127.5 C140.417,127.5 138.834,127.062 138.063,126.271 L129.584,117.3333 C129.209,116.9583 129,116.4375 129,115.8958 Z" id="Path"></path>
        </g>
    </g>
</svg>