<?xml version="1.0" encoding="UTF-8"?>
<svg width="287px" height="173px" viewBox="0 0 287 173" version="1.1" xmlns="http://www.w3.org/2000/svg" xmlns:xlink="http://www.w3.org/1999/xlink">
    <title>LOGO</title>
    <g id="Page-1" stroke="none" stroke-width="1" fill="none" fill-rule="evenodd">
        <g id="LOGO" transform="translate(1.000000, 1.000000)" fill="#F4F4F4" fill-rule="nonzero">
            <path d="M90.2103,85.8713 C90.2103,80.3294 94.7953,75.8476 100.528,75.8476 C106.301,75.8476 110.887,80.3319 110.887,85.8713 C110.887,91.372 106.301,95.9361 100.528,95.9361 C94.7953,95.9361 90.2103,91.3671 90.2103,85.8713 Z M105.933,85.8713 C105.933,83.101 103.517,80.6558 100.528,80.6558 C97.5803,80.6558 95.1645,83.101 95.1645,85.8713 C95.1645,88.6827 97.5803,91.1279 100.528,91.1279 C103.522,91.1279 105.933,88.6827 105.933,85.8713 Z M194.257,86.0345 C194.257,79.9632 199.211,75.8476 203.716,75.8476 C206.786,75.8476 208.547,76.7843 209.734,78.578 L210.206,76.2113 L214.811,76.2113 L214.811,95.5686 L210.206,95.5686 L209.611,93.5756 C208.261,95.043 206.581,95.9423 203.716,95.9423 C199.293,95.9361 194.257,92.0646 194.257,86.0345 Z M209.979,85.9934 C209.968,83.0627 207.542,80.6576 204.597,80.6576 C201.644,80.6576 199.215,83.0756 199.215,86.0139 L199.215,86.0345 C199.215,88.7238 201.63,91.1279 204.579,91.1279 C207.565,91.1279 209.979,88.7238 209.979,85.9934 Z M188.598,78.4547 L188.598,76.2126 L183.562,76.2126 L183.562,95.5686 L188.598,95.5686 L188.598,85.1388 C188.598,82.0011 190.155,80.3718 192.853,80.3718 C193.032,80.3718 193.203,80.3842 193.369,80.4004 L194.303,75.728 C191.678,75.7417 189.776,76.6373 188.598,78.4547 Z M137.995,78.456 L137.995,76.2138 L132.96,76.225 L133.002,95.5786 L138.038,95.5674 L138.01,85.1388 C138.003,82.0023 139.556,80.3693 142.257,80.363 C142.429,80.3635 142.602,80.3731 142.773,80.3917 L143.702,75.7143 C141.073,75.7355 139.168,76.6348 137.995,78.456 Z M112.632,88.0711 L112.632,76.2138 L117.666,76.2138 L117.666,87.4607 C117.666,89.9458 119.058,91.4132 121.474,91.4132 C124.176,91.4132 125.73,89.7826 125.73,86.6448 L125.73,76.2138 L130.767,76.2138 L130.767,95.5686 L125.734,95.5686 L125.734,93.3265 C124.547,95.1601 122.622,96.0569004 119.961,96.0569004 C115.457,96.0582 112.632,92.7983 112.632,88.0711 L112.632,88.0711 Z M161.665983,85.8937 C161.677,80.4739 165.575,75.8364 171.757,75.8475798 C177.49,75.8588 181.534,80.4291 181.521031,85.8127 C181.522,86.345 181.479,86.8765 181.395,87.4022 L166.574,87.3748 C167.142,89.6979 169.064,91.372 171.971,91.3783 C173.731,91.3783 175.616,90.733 176.765,89.2682 L180.2,92.0086 C178.434,94.4911 175.318,95.9523 172.004,95.9461197 C166.152,95.9261 161.656,91.5576 161.665983,85.8937 L161.665983,85.8937 Z M176.451,83.8832 C176.168,81.9276 174.124,80.4154 171.709,80.4116 C169.374,80.4116 167.489,81.7893 166.748,83.8658 L176.451,83.8832 Z M143.732,91.3496 L148.208,89.0178 C148.948,90.6135 150.427,91.5539 152.524,91.5539 C154.455,91.5539 155.195,90.9411 155.195,90.0816 C155.195,86.9674 144.592,88.8546 144.592,81.7357 C144.592,77.8095 148.044,75.7243 152.317,75.7243 C155.564,75.7243 158.44,77.1555 160.003,79.8137 L155.567,82.1493 C154.909,80.8401 153.677,80.1039 152.114,80.1039 C150.595,80.1039 149.854,80.6358 149.854,81.5352 C149.854,84.5621 160.457,82.6401 160.457,89.881 C160.457,93.6441 157.375,95.9336 152.402,95.9336 C148.169,95.9299 145.21,94.5397 143.732,91.3496 L143.732,91.3496 Z M70.2144,85.8713 C70.2144,80.2895 74.7993,75.8065 80.5321,75.8065 C84.0303,75.7821 87.3141,77.5176 89.2527,80.4154 L84.9544,82.8967 C84.4568,82.1896 83.7947,81.6129 83.0247,81.2155 C82.2547,80.8181 81.3995,80.612 80.5321,80.6147 C77.5844,80.6147 75.1686,83.0599 75.1686,85.8713 C75.1686,88.6827 77.5844,91.1279 80.5321,91.1279 C81.4404,91.1333 82.3349,90.9072 83.1305,90.4711 C83.9261,90.035 84.5962,89.4034 85.077,88.6366 L89.3328,91.1628 C87.4169,94.1467 84.088,95.9499 80.5296,95.9312456 C74.7993,95.9361 70.2144,91.3671 70.2144,85.8713 Z" id="Shape"></path>
        </g>
    </g>
</svg>