<?xml version="1.0" encoding="UTF-8"?>
<svg width="287px" height="173px" viewBox="0 0 287 173" version="1.1" xmlns="http://www.w3.org/2000/svg" xmlns:xlink="http://www.w3.org/1999/xlink">
    <title>LOGO</title>
    <g id="Page-1" stroke="none" stroke-width="1" fill="none" fill-rule="evenodd">
        <g id="LOGO" fill="#F4F4F4" fill-rule="nonzero">
            <g id="Group" transform="translate(114.429000, 42.142900)">
                <polygon id="Path" points="12.331 23.7149 22.467 12.3699 12.709 12.3699 7.72 18.3423 7.72 0 0 0 0 37.7143 7.72 37.7143 7.72 29.6125 14.463 37.7143 24.357 37.7143"></polygon>
                <polygon id="Path" points="34.571 0 26.714 0 26.714 37.7143 34.571 37.7143"></polygon>
                <polygon id="Path" points="45.571 12.5714 37.714 12.5714 37.714 37.7143 45.571 37.7143"></polygon>
                <path d="M41.643,49.5 C43.812,49.5 45.571,47.7411 45.571,45.5714 C45.571,43.4017 43.812,41.6429 41.643,41.6429 C39.473,41.6429 37.714,43.4017 37.714,45.5714 C37.714,47.7411 39.473,49.5 41.643,49.5 Z" id="Path"></path>
                <path d="M22.785,66.7791 L22.785,59.2241 L14.656,59.2241 C11.228,59.2241 9.439,56.8816 9.439,54.1401 C9.439,51.3987 11.397,49.195 14.656,49.195 L22.785,49.195 L22.785,41.6429 L14.631,41.6429 C6.73,41.6429 1.571,47.1165 1.571,54.1417 C1.571,61.7571 7.519,66.7861 14.631,66.7861 L22.785,66.7791 Z" id="Path"></path>
                <polygon id="Path" points="39.047 65.3601 49.18 54.0139 39.423 54.0139 34.433 59.9871 34.433 41.6429 26.714 41.6429 26.714 79.3571 34.435 79.3571 34.435 71.2571 41.177 79.3571 51.071 79.3571"></polygon>
                <polygon id="Path" points="5.106 83.3051 5.106 89.7201 3.819 89.7201 3.819 87.0811 1.3 87.0811 1.3 89.7201 0.017 89.7201 0.017 83.3051 1.303 83.3051 1.303 85.9551 3.822 85.9551 3.822 83.3051"></polygon>
                <polygon id="Path" points="11.243 84.4351 11.243 85.9411 14.213 85.9411 14.213 87.0271 11.243 87.0271 11.243 88.5791 14.468 88.5791 14.468 89.7251 9.957 89.7251 9.957 83.3051 14.468 83.3051 14.468 84.4351"></polygon>
                <path d="M23.147,88.5221 L20.346,88.5221 L19.931,89.7201 L18.546,89.7201 L20.972,83.3131 L22.527,83.3131 L24.951,89.7201 L23.563,89.7201 L23.147,88.5221 Z M22.776,87.4601 L21.749,84.5421 L20.721,87.4601 L22.776,87.4601 Z" id="Shape"></path>
                <polygon id="Path" points="33.496 88.5781 33.496 89.7201 29.238 89.7201 29.238 83.3051 30.524 83.3051 30.524 88.5821"></polygon>
                <polygon id="Path" points="41.595 84.4351 39.717 84.4351 39.717 89.7121 38.427 89.7121 38.427 84.4351 36.551 84.4351 36.551 83.3101 41.595 83.3101"></polygon>
                <polygon id="Path" points="51.037 83.3051 51.037 89.7201 49.75 89.7201 49.75 87.0811 47.233 87.0811 47.233 89.7201 45.946 89.7201 45.946 83.3051 47.233 83.3051 47.233 85.9551 49.75 85.9551 49.75 83.3051"></polygon>
            </g>
        </g>
    </g>
</svg>