<?xml version="1.0" encoding="UTF-8"?>
<svg width="153px" height="75px" viewBox="0 0 153 75" version="1.1" xmlns="http://www.w3.org/2000/svg" xmlns:xlink="http://www.w3.org/1999/xlink">
    <title>Slice</title>
    <g id="Page-1" stroke="none" stroke-width="1" fill="none" fill-rule="evenodd">
        <g id="Group-17" transform="translate(-67.000000, -71.000000)" fill="#000000" fill-rule="nonzero">
            <path d="M126.33,96.1667 L163.83,96.1667 L163.83,92 L126.33,92 C124.04,92 122.17,93.875 122.17,96.1667 L122.17,119.0834 L118,119.0834 L118,125.3337 L147.17,125.3337 L147.17,119.0834 L126.33,119.0834 L126.33,96.1667 Z M165.92,100.3334 L153.42,100.3334 C152.27,100.3334 151.33,101.2709 151.33,102.4167 L151.33,123.2497 C151.33,124.3957 152.27,125.3337 153.42,125.3337 L165.92,125.3337 C167.06,125.3337 168,124.3957 168,123.2497 L168,102.4167 C168,101.2709 167.06,100.3334 165.92,100.3334 Z M163.83,119.0834 L155.5,119.0834 L155.5,104.5 L163.83,104.5 L163.83,119.0834 Z" id="Shape"></path>
        </g>
    </g>
</svg>