<?xml version="1.0" encoding="UTF-8"?>
<svg width="153px" height="75px" viewBox="0 0 153 75" version="1.1" xmlns="http://www.w3.org/2000/svg" xmlns:xlink="http://www.w3.org/1999/xlink">
    <title>Slice</title>
    <g id="Page-1" stroke="none" stroke-width="1" fill="none" fill-rule="evenodd">
        <g id="logo-epcm" transform="translate(15.000000, 23.000000)" fill-rule="nonzero">
            <path d="M16.3713105,12 L0.628321648,12 C0.28142041,12 0,12.2814204 0,12.6283216 L0,18.151887 L7.58547563,18.151887 C7.77787155,18.151887 7.89007184,18.3696659 7.77860729,18.5271142 L7.02337055,19.5869471 C6.74047866,19.9257552 6.32184281,20.121462 5.88039903,20.121462 L0,20.121462 L0,21.3648619 L5.18622869,21.3648619 C5.31608673,21.3648619 5.42166537,21.4700727 5.42166537,21.6006665 L5.42166537,23.0982645 C5.42166537,23.2284904 5.31608673,23.3344369 5.18549295,23.3344369 L0,23.3344369 L0,24.5778369 L5.88039903,24.5778369 C6.32184281,24.5778369 6.74047866,24.7735437 7.02337055,25.1123518 L7.77860729,26.1729205 C7.89007184,26.329633 7.77787155,26.5474119 7.58547563,26.5474119 L0,26.5474119 L0,28.3713105 C0,28.7185796 0.28142041,29 0.628321648,29 L16.3713105,29 C16.7185796,29 17,28.7185796 17,28.3713105 L17,12.6283216 C17,12.2814204 16.7185796,12 16.3713105,12" id="Fill-108" fill="#015B9F"></path>
            <path d="M23,0.842855477 C23,0.287361833 23.2878978,0 23.8622411,0 L41.715533,0 C42.3109332,0 42.5977418,0.287361833 42.5977418,0.842855477 L42.5977418,4.21609154 C42.5977418,4.75308082 42.2717239,5.07853987 41.715533,5.07853987 L28.4834904,5.07853987 L28.4834904,11.3068899 L38.8205812,11.3068899 C39.4522863,11.3068899 39.7797564,11.5949774 39.7797564,12.1697011 L39.7797564,15.5044771 C39.7797564,16.0407407 39.4148923,16.3665626 38.8205812,16.3665626 L28.4834904,16.3665626 L28.4834904,22.9210973 L41.812104,22.9210973 C42.5599848,22.9210973 43,23.3046092 43,23.9751202 L42.9818476,27.1375517 C43,27.6741781 42.6369511,28 42.1003649,28 L23.8622411,28 C23.2878978,28 23,27.7126382 23,27.1375517 L23,0.842855477 Z" id="Fill-110" fill="#35373D"></path>
            <path d="M55.9700189,0 C58.9429618,0 61.3470037,0.881084651 63.2036125,2.62367429 C65.062072,4.36626394 66,6.66433575 66,9.51825233 C66,12.3333722 65.062072,14.6125895 63.2036125,16.3551792 C61.3470037,18.0789143 58.9429618,18.9407819 55.9700189,18.9407819 L51.5720472,18.9407819 L51.5720472,27.1381324 C51.5720472,27.7128317 51.2785283,28 50.6914905,28 L46.840952,28 C46.2735315,28 46,27.7128317 46,27.1381324 L46,0.861504992 C46,0.344456962 46.3520006,0 46.840952,0 L48.7760299,0 L50.7699597,0 L55.9700189,0 Z M55.9700189,13.7315049 C57.2814154,13.7315049 58.3359366,13.3293967 59.1761484,12.5443974 C60.0171003,11.740181 60.4275826,10.725302 60.4275826,9.47981819 C60.4275826,8.2350595 60.0171003,7.20096344 59.1761484,6.41560157 C58.3359366,5.61138521 57.2814154,5.20891444 55.9700189,5.20891444 L51.5720472,5.20891444 L51.5720472,13.7315049 L55.9700189,13.7315049 Z" id="Fill-112" fill="#35373D"></path>
            <path d="M89.6376427,21.8265979 L91.8760068,25.0596448 C92.0506258,25.3656743 91.8944265,25.843732 91.4855088,26.1305667 C90.3961667,26.9917951 89.0530009,27.6802707 87.4574849,28.2162749 C85.8634425,28.7323601 84.3441842,29 82.904499,29 C80.8621207,29 78.9357866,28.6175538 77.0860785,27.871856 C75.237844,27.125434 73.6622213,26.0925394 72.3190555,24.8104753 C70.9954145,23.5294977 69.945859,21.9797937 69.1670733,20.2008392 C68.3890244,18.4023278 68,16.5085671 68,14.5191947 C68,12.5298224 68.3890244,10.6356995 69.1670733,8.83755027 C69.945859,7.03940105 70.9954145,5.4900592 72.3190555,4.2079951 C73.6622213,2.92665534 75.237844,1.89376077 77.0860785,1.14733871 C78.9357866,0.382084072 80.8621207,0 82.904499,0 C84.2859778,0 85.7853429,0.267277768 87.3808589,0.822114544 C88.9947945,1.35811874 90.3961667,2.06578915 91.5838701,2.92665534 C91.9924194,3.23268477 92.1088321,3.73029947 91.8944265,4.01713415 L89.6181178,7.19259685 C89.3852926,7.51818318 88.858857,7.59423783 88.3722081,7.23098634 C86.7383791,6.06409072 84.6182696,5.27927917 82.904499,5.27927917 C77.6906136,5.27927917 73.5645968,9.39274921 73.5645968,14.5191947 C73.5645968,17.0630417 74.47932,19.2443615 76.2892415,21.0233159 C78.0987946,22.8026326 80.3176338,23.6823313 82.904499,23.6823313 C84.6363209,23.6823313 86.7383791,22.9362714 88.2944769,21.7889327 C88.7811258,21.4637086 89.345506,21.4637086 89.6376427,21.8265979" id="Fill-114" fill="#35373D"></path>
            <path d="M106.14265,25.641406 L99.4370236,10.5009529 L99.4370236,26.9896926 C99.4370236,27.6634729 99.1372051,28 98.5009074,28 L95.0199637,28 C94.384029,28 94,27.6634729 94,26.9896926 L94,0.973278533 C94,0.31801268 94.384029,0 95.0199637,0 L99.7575318,0 C100.221779,0 100.558258,0.128148945 100.787296,0.384083808 C100.868603,0.474114795 100.925953,0.583749303 100.964428,0.69955529 L108.517967,17.5193766 L116.117241,0.561604585 C116.304537,0.186596481 116.678766,0 117.24029,0 L122.02686,0 C122.700181,0 123,0.31801268 123,0.973278533 L123,26.9896926 C123,27.5480299 122.547368,28 121.988748,28 L118.534301,28 C117.996733,28 117.561162,27.5643662 117.561162,27.0267215 L117.561162,10.5009529 L110.663884,25.641406 C110.456987,25.9804743 110.08784,26.1866743 109.690744,26.1866743 L107.116515,26.1866743 C106.718693,26.1866743 106.350272,25.9804743 106.14265,25.641406" id="Fill-116" fill="#35373D"></path>
        </g>
    </g>
</svg>