<?xml version="1.0" encoding="UTF-8"?>
<svg width="153px" height="75px" viewBox="0 0 153 75" version="1.1" xmlns="http://www.w3.org/2000/svg" xmlns:xlink="http://www.w3.org/1999/xlink">
    <title>Slice</title>
    <g id="Page-1" stroke="none" stroke-width="1" fill="none" fill-rule="evenodd">
        <g id="Group-20" transform="translate(-67.000000, -71.000000)" fill="#2B2B4B" fill-rule="nonzero">
            <path d="M164.747,83 L164.750003,83.334 C164.752,83.562 163.829,94.142 162.878,104.918 L162.762,106.238 C161.81,117.013 160.867,127.57 160.828,127.755 C160.772,128.025 159.712,128.354 151.856,130.539 C146.956,131.901 142.848,133.008 142.726,133.000043 C142.716,132.999 142.684,132.992 142.629,132.979 L142.567,132.963 C141.764,132.759 138.053,131.733 133.715,130.513 L124.925,128.042 L122.969,106.078 C121.894,93.997 121.011,83.863 121.007,83.557 L121,83 L164.747,83 Z M139.242,88.665 L137.968,88.665 C133.764,88.669 132.527,88.714 132.527,88.824 C132.526,88.858 132.519,88.953 132.507,89.091 L132.495,89.219 C132.468,89.493 132.428,89.876 132.384,90.272 C132.293,91.078 131.914,95.234 131.544,99.389 L131.498,99.908 C131.114,104.229 130.754,108.397 130.754,108.621 L130.754,108.972 L149.55,108.972 L149.466,109.528 C149.42,109.834 149.274,111.387 149.142,112.979 C149.009,114.57 148.858,115.914 148.806,115.964 C148.668,116.097 143.14,117.58 142.795,117.576 C142.635,117.575 141.207,117.217 139.622,116.781 L136.74,115.989 L136.634,114.744 C136.576,114.059 136.488,113.081 136.438,112.57 L136.347,111.643 L130.754,111.643 L130.761,112.199 C130.766,112.697 130.923,114.56 131.095,116.38 L131.127,116.71 C131.306,118.574 131.494,120.3 131.542,120.349 C131.599,120.406 134.372,121.209 137.142,121.991 L137.504,122.092 C140.089,122.82 142.569,123.5 142.726,123.506017 C142.848,123.51 145.433,122.82 148.472,121.971 C151.51,121.123 154.039,120.359 154.092,120.273 C154.105,120.253 154.136,120.017 154.181,119.608 L154.198,119.456 C154.344,118.108 154.614,115.244 154.898,111.985 C155.289,107.511 155.641,103.735 155.68,103.592 C155.741,103.371 155.328,103.337 148.744,103.333 L148.295,103.332 C148.219,103.332 148.142,103.332 148.064,103.332 L136.873,103.332 L137.275,99.065 C137.496,96.719 137.682,94.792 137.689,94.785 C137.695,94.778 139.081,94.733 140.767,94.686 C141.118,94.677 141.516,94.672 141.944,94.671 L142.233,94.671 C142.869,94.672 143.559,94.682 144.253,94.698 L144.573,94.706 L144.892,94.715 C147.174,94.78 149.312,94.907 149.427,95.023 C149.499,95.094 149.968,99.714 149.968,100.345 L149.968,100.377 C149.974,100.636 150.09,100.659 152.277,100.66 L155.695,100.661 L155.628,100.03 C155.591,99.683 155.348,96.995 155.089,94.056 L154.617,88.714 L143.573,88.676 C141.903,88.67 140.469,88.666 139.242,88.665 Z" id="Shape"></path>
        </g>
    </g>
</svg>