<?xml version="1.0" encoding="UTF-8"?>
<svg width="153px" height="75px" viewBox="0 0 153 75" version="1.1" xmlns="http://www.w3.org/2000/svg" xmlns:xlink="http://www.w3.org/1999/xlink">
    <title>Slice</title>
    <g id="Page-1" stroke="none" stroke-width="1" fill="none" fill-rule="evenodd">
        <g id="Group-7" transform="translate(-67.000000, -71.000000)" fill-rule="nonzero">
            <g id="Group-28" transform="translate(74.675000, 84.509961)">
                <path d="M18.871,15.4394392 C7.777,23.0880392 0,33.4130392 0,33.4130392 L14.55,43.2570392 C14.55,43.2570392 15.816,40.1110392 15.852,40.0230392 C19.312,47.1560392 26.732,49.0700392 30.88,48.9700392 L106.282,48.9700392 C110.478,49.0840392 117.973,47.1950392 121.465,40.0710392 C121.583,40.3670392 122.722,43.1390392 122.722,43.1390392 L137.273,33.4010392 C137.273,33.4010392 129.375,23.0630392 118.202,15.4255392 C107.907,8.38983919 90.919,0 68.459,0 C50.746,-0.0167608147 33.448,5.36883919 18.871,15.4394392 Z" id="Path" fill="#FFFFFF"></path>
                <polygon id="Path" fill="#E1242A" points="46.428 23.2500392 47.687 20.5590392 31.55 20.5590392 30.291 23.2500392 36.539 23.2500392 30.07 36.4250392 34.246 36.4250392 40.716 23.2500392"></polygon>
                <path d="M104.698,32.0560392 C103.499,33.7440392 101.8,34.5990392 100.902,33.9660392 C100.003,33.3260392 100.251,31.4400392 101.451,29.7500392 C102.65,28.0590392 104.351,27.2050392 105.249,27.8390392 C106.145,28.4790392 105.898,30.3640392 104.698,32.0560392 Z M90.574,31.9910392 C89.372,33.6850392 87.673,34.5370392 86.775,33.9040392 C85.876,33.2640392 86.123,31.3780392 87.326,29.6810392 C88.524,27.9930392 90.223,27.1380392 91.123,27.7740392 C92.023,28.4110392 91.771,30.3000392 90.574,31.9910392 M73.027,30.7650392 C73.027,30.7650392 73.805,28.1400392 76.341,27.0890392 C76.341,27.0890392 77.057,26.8410392 77.443,27.1560392 C77.443,27.1560392 77.986,27.6840392 77.339,28.6470392 C76.762,29.5060392 75.378,31.0640392 73.874,31.5870392 C73.874,31.5870392 72.513,32.1790392 73.027,30.7650392 Z M48.389,31.9910392 C47.188,33.6850392 45.489,34.5370392 44.59,33.9040392 C43.693,33.2640392 43.941,31.3780392 45.14,29.6810392 C46.34,27.9930392 48.04,27.1380392 48.937,27.7740392 C49.835,28.4110392 49.588,30.3000392 48.389,31.9910392 M108.718,34.0520392 C108.718,34.0520392 107.904,34.4260392 107.552,34.0630392 C107.2,33.7010392 107.514,33.0260392 107.514,33.0260392 L110.927,25.8510392 L107.449,25.8510392 L106.919,26.8080392 C104.888,25.0200392 101.07,25.9440392 98.702,28.4200392 C97.338,29.8490392 96.563,31.5370392 96.459,33.0070392 C95.872,33.3980392 95.246,33.7270392 94.591,33.9880392 C94.591,33.9880392 93.778,34.3600392 93.427,33.9960392 C93.075,33.6320392 93.387,32.9570392 93.387,32.9570392 L99.443,20.4930392 L95.968,20.4930392 L92.791,26.7420392 C90.763,24.9580392 86.944,25.8810392 84.577,28.3570392 C84.117,28.8400392 83.709,29.3710392 83.361,29.9400392 L83.363,29.9290392 C83.34,29.9710392 83.315,30.0150392 83.292,30.0590392 C83.218,30.1870392 83.146,30.3160392 83.082,30.4410392 C81.192,33.7140392 78.843,34.2600392 78.843,34.2600392 C73.878,35.7470392 73.309,33.3130392 73.309,33.3130392 C78.873,31.2520392 80.96,28.8180392 80.772,26.9540392 C80.58,25.0840392 78.02,24.9910392 78.02,24.9910392 C73.815,24.7380392 70.178,27.6810392 69.293,30.5610392 C69.018,31.3990392 68.954,32.2920392 69.106,33.1620392 C67.423,34.0570392 66.456,34.2010392 66.456,34.2010392 C65.054,34.6430392 64.882,33.9830392 64.713,33.5710392 C64.544,33.1590392 63.914,29.5770392 63.914,29.5770392 L69.819,25.7140392 L66.203,25.7140392 L61.766,28.4660392 C60.769,28.8760392 61.156,27.8310392 61.156,27.8310392 L64.776,20.4880392 L61.3,20.4880392 L55.424,32.4030392 C54.749,32.8040392 53.389,33.5970392 52.409,33.9880392 C52.409,33.9880392 51.595,34.3600392 51.241,33.9960392 C50.888,33.6320392 51.203,32.9570392 51.203,32.9570392 L54.615,25.7850392 L51.139,25.7850392 L50.607,26.7420392 C48.578,24.9580392 44.76,25.8810392 42.393,28.3560392 C40.026,30.8320392 39.42,34.0970392 41.041,35.6440392 C42.338,36.8890392 44.665,36.6600392 46.756,35.2470392 C46.756,35.2470392 47.286,34.7900392 47.573,35.3280392 C47.871,35.8770392 49.068,37.1290392 51.824,36.0390392 C52.636,35.7180392 53.424,35.3420392 54.185,34.9130392 L53.462,36.3790392 L56.939,36.3790392 L58.679,32.8530392 L60.192,31.8900392 C60.192,31.8900392 60.653,31.5250392 60.842,32.3040392 C60.842,32.3040392 61.591,35.2670392 61.883,35.6550392 C62.174,36.0440392 62.753,36.9130392 65.195,36.2100392 C66.737,35.7660392 68.252,35.2340392 69.733,34.6160392 C70.55,35.7410392 72.125,36.5100392 74.7,36.5100392 C77.491,36.4970392 80.192,35.5190392 82.344,33.7410392 C82.4,34.4610392 82.713,35.1370392 83.226,35.6450392 C84.523,36.8890392 86.849,36.6610392 88.941,35.2480392 C88.941,35.2480392 89.471,34.7910392 89.759,35.3290392 C90.056,35.8770392 91.253,37.1290392 94.01,36.0400392 C94.945,35.6870392 95.84,35.2330392 96.679,34.6890392 C96.826,35.0750392 97.056,35.4250392 97.352,35.7130392 C98.649,36.9540392 100.975,36.7230392 103.067,35.3130392 C103.067,35.3130392 103.596,34.8590392 103.885,35.3930392 C104.182,35.9460392 105.378,37.1930392 108.135,36.1050392 C110.892,35.0170392 111.686,34.0290392 111.686,34.0290392 L110.989,32.7990392 C110.285,33.3080392 109.523,33.7280392 108.719,34.0530392" id="Shape" fill="#E1242A"></path>
                <path d="M118.455,33.7200392 C118.455,33.7200392 116.811,43.3220392 106.204,43.3220392 L30.777,43.3220392 C20.173,43.3220392 18.68,33.6320392 18.68,33.6320392 C18.274,31.0590392 18.771,29.3010392 19.562,28.0830392 C27.197,18.0200392 42.306,4.52003919 68.424,4.52003919 C94.768,4.52003919 110,18.2170392 117.637,28.2820392 C118.518,29.3970392 118.846,31.2310392 118.455,33.7200392 Z M68.459,2.85623919 C26.387,2.85623919 4.075,32.7260392 4.075,32.7260392 L13.223,38.9130392 C13.223,38.9130392 14.329,36.1420392 16.863,32.1770392 C16.865,32.7430392 16.913,33.3090392 17.008,33.8670392 C18.625,46.4160392 30.812,46.1180392 30.812,46.1180392 L106.361,46.1180392 C106.361,46.1180392 118.707,46.4530392 120.323,33.9110392 C120.413,33.3700392 120.459,32.8230392 120.459,32.2750392 C122.944,36.1420392 124.036,38.8300392 124.036,38.8300392 L133.171,32.7100392 C133.171,32.7100392 110.531,2.85623919 68.459,2.85623919 Z" id="Shape" fill="#E1242A"></path>
            </g>
        </g>
    </g>
</svg>