<?xml version="1.0" encoding="UTF-8"?>
<svg width="287px" height="173px" viewBox="0 0 287 173" version="1.1" xmlns="http://www.w3.org/2000/svg" xmlns:xlink="http://www.w3.org/1999/xlink">
    <title>LOGO</title>
    <g id="Page-1" stroke="none" stroke-width="1" fill="none" fill-rule="evenodd">
        <g id="LOGO" fill="#F4F4F4" fill-rule="nonzero">
            <g id="logo-udemy" transform="translate(81.000000, 63.000000)">
                <polygon id="Path" points="19.9985766 11 9.99786492 5.5 0 11 0 5.5 9.99928831 0 20 5.5 20 11"></polygon>
                <path d="M0,16.0734718 L5.08618879,16.0734718 L5.08618879,28.3728264 C5.08618879,31.550492 7.47033978,33.0994321 9.70936854,33.0994321 C11.9677469,33.0994321 14.3339304,31.5092237 14.3339304,28.3301824 L14.3339304,16.0734718 L19.4201192,16.0734718 L19.4201192,28.6658319 C19.4201192,31.593136 18.4954832,33.8518923 16.6462113,35.4008324 C14.7955573,36.9483969 12.4846585,37.7022327 9.66652293,37.7022327 C6.85115158,37.7022327 4.53887064,36.9497725 2.73244436,35.4008324 C0.924635951,33.853268 0,31.678424 0,28.7910127 L0,16.0734718 Z M63.3921562,31.3592819 C61.8524784,32.7238898 60.0985726,33.3924377 58.0986499,33.3924377 C54.4498623,33.3924377 52.0035161,31.3235159 51.7270928,28.1197136 L68.1604582,28.1197136 C68.1604582,28.1197136 68.2710275,27.0852527 68.2710275,26.1140701 C68.2710275,23.1014779 67.303546,20.5909844 65.3271193,18.5413213 C63.3949204,16.4916581 60.8739399,15.4874608 57.8042591,15.4874608 C54.5687244,15.4874608 51.919207,16.4916581 49.8170078,18.5413213 C47.7576542,20.5909844 46.7072456,23.2679271 46.7072456,26.6161687 L46.7072456,26.7812423 C46.7072456,30.08684 47.7576542,32.7225142 49.8170078,34.6896406 C51.8763614,36.6553913 54.6088057,37.6595887 57.9300317,37.6595887 C61.7916653,37.6595887 64.8641103,36.1436634 67.1694807,33.5299989 L63.3921562,31.3592819 Z M53.7256333,21.0930831 C54.8589688,20.2140665 56.2479959,19.7546118 57.802877,19.7546118 C59.273449,19.7546118 60.4924758,20.2140665 61.5442664,21.1357271 C62.547683,21.974851 63.0894727,23.005185 63.1364647,24.1895877 L51.8570118,24.1895877 C52.0201015,22.9652922 52.6420539,21.9335826 53.7270154,21.0944587 L53.7256333,21.0930831 Z M114.591281,40.5016049 C112.527781,45.3506402 110.368915,47 107.058745,47 L104.764432,47 L104.764432,42.5127509 L106.619232,42.5127509 C107.758096,42.5127509 108.816798,42.0863109 109.825743,39.7697788 L110.834688,37.4504956 L102.132882,16.0734718 L107.30338,16.0734718 L113.482823,31.4693309 L119.830884,16.0734718 L125,16.0734718 L114.592663,40.5016049 L114.591281,40.5016049 Z M39.2203204,8 L39.2203204,17.9828225 C37.5534879,16.4971606 34.9606373,15.6126415 32.453478,15.6126415 C29.4681063,15.6126415 26.9471258,16.6581073 24.8877721,18.7903072 C22.869882,20.8826144 21.860937,23.4756446 21.860937,26.6134175 C21.860937,29.752566 22.869882,32.3455963 24.8877721,34.4791718 C26.9471258,36.571479 29.4694884,37.6183203 32.453478,37.6183203 C35.8949481,37.6183203 38.0703995,36.2715954 39.2203204,35.2165003 L39.2203204,37.15749 L44.2650457,37.15749 L44.2650457,8.00137561 L39.2203204,8.00137561 L39.2203204,8 Z M37.7069028,31.2175937 C36.4878761,32.4308843 34.932995,33.0595393 33.1251866,33.0595393 C31.3173782,33.0595393 29.8468062,32.4308843 28.6277794,31.2175937 C27.4529804,30.0043032 26.8628166,28.4567387 26.8628166,26.6161687 C26.8628166,24.7742231 27.4515983,23.2266587 28.6277794,22.0133681 C29.8468062,20.8000776 31.3173782,20.1727981 33.1251866,20.1727981 C34.932995,20.1727981 36.4878761,20.8000776 37.7069028,22.0133681 C38.9673931,23.2266587 39.6004025,24.7742231 39.6004025,26.6161687 C39.6004025,28.4567387 38.9673931,30.0043032 37.7069028,31.2175937 Z M94.2907531,15.6552855 C90.4595261,15.6552855 88.4678962,17.2372403 87.1037472,18.7614194 C86.5578112,17.7255829 85.0208976,15.6552855 81.4301589,15.6552855 C78.395031,15.6552855 76.6065722,17.1822158 75.713725,18.2689499 L75.713725,16.0762231 L70.7132274,16.0762231 L70.7132274,37.1602413 L75.713725,37.1602413 L75.713725,25.0273359 C75.713725,22.1825685 77.4800699,20.1329054 79.8324322,20.1329054 C82.2304044,20.1329054 83.6166672,21.932207 83.6166672,24.8182427 L83.6166672,37.1588656 L88.6185469,37.1588656 L88.6185469,25.0259603 C88.6185469,22.1399245 90.3406641,20.1315298 92.8201811,20.1315298 C95.2167712,20.1315298 96.603034,21.9308314 96.603034,24.8154915 L96.603034,37.15749 L101.647759,37.15749 L101.647759,24.1056753 C101.647759,18.6087263 98.678973,15.6566611 94.2907531,15.6566611 L94.2907531,15.6552855 Z" id="Shape"></path>
            </g>
        </g>
    </g>
</svg>