<?xml version="1.0" encoding="UTF-8"?>
<svg width="153px" height="75px" viewBox="0 0 153 75" version="1.1" xmlns="http://www.w3.org/2000/svg" xmlns:xlink="http://www.w3.org/1999/xlink">
    <title>Slice</title>
    <g id="Page-1" stroke="none" stroke-width="1" fill="none" fill-rule="evenodd">
        <g id="Group-6" transform="translate(-67.000000, -71.000000)">
            <g id="Group-29" transform="translate(116.951000, 74.000000)">
                <path d="M53.058,61.369 C53.058,63.718 52.122,64.97 50.249,65.753 C43.071,68.571 34.644,69.98 26.529,69.98 C18.414,69.98 9.987,68.571 2.809,65.753 C0.936,64.97 0,63.718 0,61.369 L0,0 L53.058,0 L53.058,61.369 Z" id="Path" fill="#0059B3" fill-rule="nonzero"></path>
                <path d="M53.058,61.369 C53.058,63.718 52.122,64.97 50.249,65.753 C43.071,68.571 34.644,69.98 26.529,69.98 C18.414,69.98 9.987,68.571 2.809,65.753 C0.936,64.97 0,63.718 0,61.369 L0,0 L53.058,0 L53.058,61.369 Z" id="Path" stroke="#FFFFFF" stroke-width="0.984683"></path>
                <path d="M14.201,37.417 C6.867,32.877 4.37,30.841 4.214,27.71 C4.214,27.084 4.37,25.9882 4.526,25.362 L3.902,24.8924 C3.277,25.8317 2.965,26.928 2.965,28.023 C2.965,29.746 3.589,31.155 4.214,32.094 C5.306,33.659 6.398,34.755 9.051,36.634 C11.86,38.826 13.889,41.331 14.981,43.992 L15.449,43.992 L15.449,41.017 C19.351,43.209 22.784,45.244 24.5,49.002 L24.969,49.002 C24.188,45.244 22.004,42.27 14.201,37.417 Z M35.736,27.397 C34.176,28.18 33.083,29.119 31.991,30.528 L35.268,30.372 C35.424,28.806 35.58,27.867 35.736,27.397 L35.736,27.397 Z M47.596,39.139 C47.908,38.356 48.22,37.417 48.22,36.634 L43.383,36.321 C43.227,37.573 42.915,38.669 42.446,39.765 L47.596,39.139 L47.596,39.139 Z M42.446,27.084 C42.759,28.023 43.071,28.963 43.227,29.746 L46.036,29.589 C45.099,28.493 43.851,27.71 42.446,27.084 L42.446,27.084 Z M41.198,29.902 C40.886,28.806 40.418,27.554 39.794,26.458 L38.233,26.458 C37.765,27.554 37.453,28.806 37.141,30.059 L41.198,29.902 L41.198,29.902 Z M43.539,31.468 C43.695,32.72 43.695,33.816 43.695,34.912 L48.376,34.599 C48.22,33.503 47.908,32.564 47.44,31.624 L43.539,31.468 Z M41.978,34.912 C41.978,33.659 41.822,32.564 41.51,31.311 L36.829,31.155 C36.516,32.564 36.36,33.973 36.204,35.225 L41.978,34.912 Z M42.602,24.8924 L43.227,24.1096 L42.446,23.0137 L42.602,22.7006 L44.943,23.953 L44.475,25.5186 C44.787,25.6751 45.255,25.9882 45.723,26.301 L47.284,23.7965 L43.383,21.7613 L34.644,21.7613 L27.465,25.9882 C28.87,26.928 29.962,27.867 30.899,28.963 C32.771,26.145 36.204,24.4227 39.481,24.4227 C40.262,24.4227 41.51,24.5793 42.602,24.8924 L42.602,24.8924 Z M24.969,24.7358 L28.87,22.3875 C28.09,21.9178 27.153,21.7613 26.217,21.7613 C24.813,21.7613 22.628,22.3875 21.535,22.544 C22.004,22.8572 23.876,23.953 24.969,24.7358 Z M25.905,15.8122 C24.5,15.4991 23.72,15.6556 22.94,16.4384 C23.408,16.595 23.876,16.7515 24.344,16.7515 C25.125,16.595 25.593,16.1253 25.905,15.8122 Z M48.064,49.158 L47.596,49.158 C47.596,46.34 45.099,45.714 42.446,45.714 L34.176,45.714 C34.488,47.123 34.488,48.689 34.332,50.098 L33.864,50.098 C33.083,43.992 29.65,40.861 24.813,37.573 L24.813,40.391 L24.344,40.391 C23.096,37.417 20.287,34.755 17.478,32.877 L15.293,31.311 L15.293,34.286 L14.825,34.286 C13.733,31.311 11.548,28.963 8.739,26.301 C5.618,23.4834 4.214,21.7613 3.589,19.7261 C3.121,18.4736 2.965,17.5343 2.965,16.2819 C2.965,13.9335 4.058,11.7418 5.618,10.959 L5.618,12.0549 C4.838,12.9942 4.526,14.2467 4.526,15.4991 C4.526,16.595 4.838,18.004 5.306,19.0998 C7.179,22.544 13.109,26.771 17.01,29.276 C29.026,37.26 31.367,38.669 33.395,43.053 C33.551,43.522 33.864,44.149 34.02,44.931 C35.736,44.618 41.978,43.679 43.227,43.522 C43.383,43.522 43.851,43.366 44.163,43.366 C45.255,42.74 46.036,41.8 46.816,40.704 L42.29,40.391 C42.134,40.861 41.822,41.331 41.666,41.644 L41.354,41.644 C41.51,41.174 41.51,40.704 41.666,40.235 L40.418,40.078 L40.418,39.765 L41.666,39.608 C41.978,38.356 41.978,37.104 41.978,36.008 L36.204,35.695 L36.204,37.417 L35.892,37.417 C35.736,36.791 35.736,36.321 35.58,35.695 L34.332,35.695 L34.332,35.382 L35.58,35.382 C35.424,33.973 35.424,32.564 35.424,31.155 L31.991,30.998 L32.459,31.937 C33.239,33.973 33.083,36.321 32.771,37.417 L32.303,37.417 C32.303,36.164 31.835,34.599 31.367,33.659 C30.43,31.468 28.402,29.432 24.813,27.241 L24.813,30.059 L24.344,30.059 C23.252,26.301 20.287,24.2661 15.918,22.0744 C12.328,20.1957 11.236,18.004 11.392,14.5598 L12.64,15.3425 C12.953,18.4736 15.449,20.3523 17.946,20.3523 C19.507,20.3523 20.911,20.1957 22.316,19.8826 C24.344,19.413 26.061,19.0998 27.621,19.7261 L27.621,17.8474 L26.373,17.8474 C25.905,18.1605 25.125,18.6302 23.876,18.6302 C22.472,18.6302 19.819,17.8474 19.819,14.8729 C19.819,12.2114 22.004,11.8983 23.72,11.8983 L26.841,11.8983 C27.309,11.8983 27.465,11.7418 27.778,11.5852 C27.934,11.4287 28.09,11.1156 28.09,10.959 L28.09,7.6714 L19.819,7.6714 L19.819,10.959 L16.698,9.7066 L16.698,8.9238 L18.258,8.9238 L18.258,7.6714 L12.797,7.6714 L12.797,5.0099 L10.924,5.0099 C9.832,5.0099 8.739,5.6362 8.583,7.0451 C8.583,8.4541 9.051,9.55 10.456,9.55 L10.768,9.55 L10.768,11.1156 L10.456,11.1156 C8.115,11.1156 6.242,9.3935 6.242,6.8886 C6.242,4.3837 8.271,2.5051 10.924,2.5051 L14.981,2.5051 L14.981,5.1665 L30.586,5.1665 L30.586,9.2369 C30.586,9.8631 30.586,10.8025 30.43,11.4287 C30.43,11.8983 30.274,12.5246 29.494,13.1508 C29.026,13.4639 28.246,13.6204 27.153,13.6204 C26.217,13.6204 25.281,13.6204 24.344,13.4639 C22.628,13.3073 22.004,14.0901 22.004,14.7163 L22.004,15.186 C22.784,14.5598 24.032,14.0901 25.281,14.5598 C27.621,15.3425 28.246,15.3425 29.494,14.4032 L29.65,14.7163 C29.494,14.8729 29.338,15.186 28.87,15.4991 L29.962,15.4991 L29.962,21.7613 L33.551,19.5695 L43.539,19.5695 L48.376,22.0744 C49.001,22.3875 49.157,22.8572 49.313,23.3268 C49.313,23.7965 49.313,24.4227 49.001,24.7358 C48.845,25.0489 47.752,26.928 47.128,27.867 C49.001,29.902 49.937,32.407 49.937,35.068 C49.937,37.73 49.001,41.017 45.88,43.522 C47.128,43.835 48.064,44.618 48.845,45.714 L48.064,49.158" id="Shape" fill="#FFDF01" fill-rule="nonzero"></path>
                <path d="M26.841,62.465 L24.968,62.465 L24.968,56.986 L26.841,56.986 C29.338,56.986 30.274,57.769 30.274,59.647 C30.118,61.526 28.869,62.465 26.841,62.465 Z M26.685,51.663 C28.245,51.663 29.182,51.976 29.182,53.542 C29.182,55.264 27.777,55.733 26.217,55.733 L24.812,55.733 L24.812,51.663 L26.685,51.663 L26.685,51.663 Z M29.65,56.203 C31.054,56.047 32.303,54.951 32.303,53.385 C32.303,51.976 31.678,50.411 27.465,50.411 L20.443,50.411 L20.443,50.567 C20.599,50.567 21.067,50.88 21.223,51.037 C21.691,51.506 21.847,52.133 21.847,53.072 L21.847,63.718 L27.621,63.718 C30.898,63.718 33.083,62.465 33.083,59.647 C33.239,57.299 31.522,56.36 29.65,56.203 M9.831,51.663 L11.86,51.663 C13.576,51.663 14.513,52.133 14.513,54.011 C14.513,55.577 13.42,56.673 11.548,56.673 L9.987,56.673 L9.987,51.663 L9.831,51.663 Z M15.293,63.718 L19.038,63.718 L14.201,57.456 C16.073,56.986 17.634,55.89 17.634,53.855 C17.634,51.506 16.229,50.411 12.796,50.411 L5.306,50.411 L5.306,50.567 C5.618,50.724 5.93,50.88 6.086,51.037 C6.554,51.506 6.71,52.289 6.71,53.385 L6.71,63.718 L9.831,63.718 L9.831,57.769 L10.923,57.769 L15.293,63.718 Z M45.567,52.289 C46.347,52.759 46.659,53.385 46.659,53.385 L46.815,53.385 L47.44,51.193 C47.44,51.193 46.191,50.411 43.382,50.411 C39.013,50.411 35.892,52.602 35.892,57.299 C35.892,62.622 39.793,64.031 43.07,64.031 C46.191,64.031 47.44,63.091 47.44,63.091 L47.44,61.526 C47.44,61.526 46.347,62.622 44.006,62.622 C41.978,62.622 39.169,61.683 39.169,57.299 C39.169,53.229 40.885,51.976 43.226,51.976 C44.475,51.663 45.099,51.976 45.567,52.289" id="Shape" fill="#FFFFFF" fill-rule="nonzero"></path>
            </g>
        </g>
    </g>
</svg>