<?xml version="1.0" encoding="UTF-8"?>
<svg width="287px" height="173px" viewBox="0 0 287 173" version="1.1" xmlns="http://www.w3.org/2000/svg" xmlns:xlink="http://www.w3.org/1999/xlink">
    <title>LOGO</title>
    <g id="Page-1" stroke="none" stroke-width="1" fill="none" fill-rule="evenodd">
        <g id="LOGO"></g>
        <g id="logo__resume-epcm" transform="translate(76.000000, 71.000000)" fill="#F4F4F4" fill-rule="nonzero">
            <path d="M0.665281745,13 C0.297974552,13 0,13.2979746 0,13.6652817 L0,19.5137627 L8.03168008,19.5137627 C8.2353934,19.5137627 8.35419372,19.7443521 8.23617242,19.9110621 L7.43651,21.0332381 C7.13697741,21.3919761 6.69371592,21.599195 6.22630486,21.599195 L0,21.599195 L0,22.9157362 L5.49130096,22.9157362 C5.62879771,22.9157362 5.74058686,23.0271358 5.74058686,23.1654116 L5.74058686,24.7511036 C5.74058686,24.8889899 5.62879771,25.0011685 5.49052194,25.0011685 L0,25.0011685 L0,26.3177097 L6.22630486,26.3177097 C6.69371592,26.3177097 7.13697741,26.5249286 7.43651,26.8836666 L8.23617242,28.0066217 C8.35419372,28.1725526 8.2353934,28.403142 8.03168008,28.403142 L0,28.403142 L0,30.3343287 C0,30.7020254 0.297974552,31 0.665281745,31 L17.3343287,31 C17.7020254,31 18,30.7020254 18,30.3343287 L18,13.6652817 C18,13.2979746 17.7020254,13 17.3343287,13 L0.665281745,13 Z" id="Fill-108"></path>
            <path d="M25,0.933161421 C25,0.318150601 25.3166875,0 25.9484652,0 L45.5870864,0 C46.2420265,0 46.557516,0.318150601 46.557516,0.933161421 L46.557516,4.66781563 C46.557516,5.26233948 46.1988963,5.62266914 45.5870864,5.62266914 L31.0318394,5.62266914 L31.0318394,12.5183424 L42.4026394,12.5183424 C43.0975149,12.5183424 43.457732,12.8372964 43.457732,13.4735976 L43.457732,17.165671 C43.457732,17.7593915 43.0563815,18.1201228 42.4026394,18.1201228 L31.0318394,18.1201228 L31.0318394,25.3769292 L45.6933145,25.3769292 C46.5159832,25.3769292 47,25.8015317 47,26.5438831 L46.9800323,30.0451465 C47,30.6392686 46.6006462,31 46.0104014,31 L25.9484652,31 C25.3166875,31 25,30.6818494 25,30.0451465 L25,0.933161421 Z" id="Fill-110"></path>
            <path d="M61.9670208,0 C65.237258,0 67.8817041,0.975486578 69.9239738,2.90478225 C71.9682792,4.83407793 73,7.37837173 73,10.5380651 C73,13.6548049 71.9682792,16.1782241 69.9239738,18.1075198 C67.8817041,20.0159408 65.237258,20.9701514 61.9670208,20.9701514 L57.129252,20.9701514 L57.129252,30.0457895 C57.129252,30.6820636 56.8063812,31 56.1606396,31 L51.9250472,31 C51.3008846,31 51,30.6820636 51,30.0457895 L51,0.953809098 C51,0.381363065 51.3872007,0 51.9250472,0 L54.0536329,0 L56.2469556,0 L61.9670208,0 Z M61.9670208,15.2027375 C63.4095569,15.2027375 64.5695303,14.7575463 65.4937632,13.88844 C66.4188104,12.9980576 66.8703409,11.8744416 66.8703409,10.495513 C66.8703409,9.11738731 66.4188104,7.97249524 65.4937632,7.10298745 C64.5695303,6.21260505 63.4095569,5.76701242 61.9670208,5.76701242 L57.129252,5.76701242 L57.129252,15.2027375 L61.9670208,15.2027375 Z" id="Fill-112"></path>
            <path d="M98.4407796,24.0845218 L100.865674,27.6520219 C101.054845,27.9897095 100.885629,28.5172216 100.442635,28.8337288 C99.2625139,29.7840498 97.8074176,30.543747 96.078942,31.1351999 C94.3520627,31.7046732 92.7061995,32 91.1465406,32 C88.9339641,32 86.8471021,31.5779904 84.8432517,30.7551515 C82.8409976,29.9315134 81.1340731,28.7917676 79.6789768,27.3770762 C78.2450324,25.9635837 77.1080139,24.2535655 76.2643294,22.2905812 C75.4214431,20.3060169 75,18.2163499 75,16.0211804 C75,13.8260109 75.4214431,11.7359443 76.2643294,9.7517796 C77.1080139,7.76761496 78.2450324,6.05799635 79.6789768,4.64330494 C81.1340731,3.22941279 82.8409976,2.08966706 84.8432517,1.26602892 C86.8471021,0.421610011 88.9339641,0 91.1465406,0 C92.6431427,0 94.2674548,0.294927192 95.9959304,0.907160876 C97.7443608,1.49861378 99.2625139,2.27949147 100.549193,3.22941279 C100.991788,3.56710043 101.117901,4.11619252 100.885629,4.43269975 L98.4196276,7.93665859 C98.1674003,8.29592627 97.5970951,8.37984864 97.0698921,7.97901941 C95.2999107,6.69141045 93.0031253,5.82541149 91.1465406,5.82541149 C85.4981648,5.82541149 81.0283132,10.3644129 81.0283132,16.0211804 C81.0283132,18.8281839 82.0192633,21.2351575 83.9800116,23.1981417 C85.9403608,25.1615256 88.3441033,26.1322277 91.1465406,26.1322277 C93.022681,26.1322277 95.2999107,25.3089892 96.9856833,24.0429603 C97.5128863,23.6840922 98.1242981,23.6840922 98.4407796,24.0845218" id="Fill-114"></path>
            <path d="M117.398786,28.3886995 L109.999474,11.6260551 L109.999474,29.8814454 C109.999474,30.6274164 109.66864,31 108.966519,31 L105.125477,31 C104.423756,31 104,30.6274164 104,29.8814454 L104,1.07755838 C104,0.352085467 104.423756,0 105.125477,0 L110.353138,0 C110.865411,0 111.236698,0.141879189 111.48943,0.425235644 C111.579148,0.524912808 111.642431,0.646293871 111.684886,0.774507643 L120.019826,19.3964527 L128.405232,0.621776504 C128.611903,0.206588961 129.024845,0 129.644458,0 L134.926191,0 C135.669166,0 136,0.352085467 136,1.07755838 L136,29.8814454 C136,30.4996046 135.500544,31 134.884135,31 L131.072332,31 C130.479154,31 129.998523,30.5176911 129.998523,29.9224416 L129.998523,11.6260551 L122.387734,28.3886995 C122.159434,28.7640965 121.7521,28.9923894 121.313925,28.9923894 L118.473396,28.9923894 C118.03442,28.9923894 117.627887,28.7640965 117.398786,28.3886995" id="Fill-116"></path>
        </g>
    </g>
</svg>