<?xml version="1.0" encoding="UTF-8"?>
<svg width="153px" height="75px" viewBox="0 0 153 75" version="1.1" xmlns="http://www.w3.org/2000/svg" xmlns:xlink="http://www.w3.org/1999/xlink">
    <title>Slice</title>
    <g id="Page-1" stroke="none" stroke-width="1" fill="none" fill-rule="evenodd">
        <g id="Group-19" transform="translate(-67.000000, -71.000000)" fill="#2B2B4B" fill-rule="nonzero">
            <path d="M163.896589,111.49588 C161.915589,111.50588 160.193589,111.98388 158.751589,112.68888 C158.222589,111.64088 157.693589,110.70688 157.600589,110.02188 C157.496589,109.22288 157.372589,108.73488 157.496589,107.78088 C157.621589,106.82588 158.181589,105.46588 158.171589,105.36188 C158.160589,105.25888 158.046589,104.77088 156.905589,104.75988 C155.764589,104.74988 154.779589,104.97788 154.665589,105.27888 C154.551589,105.57988 154.333589,106.26488 154.188589,106.97088 C153.991589,108.00888 151.906589,111.71388 150.713589,113.65488 C150.329589,112.89688 149.997589,112.23288 149.925589,111.70388 C149.821589,110.90388 149.697589,110.41688 149.821589,109.46188 C149.945589,108.50688 150.506589,107.14688 150.495589,107.04388 C150.485589,106.93988 150.371589,106.45188 149.230589,106.44188 C148.089589,106.43088 147.104589,106.65988 146.989589,106.96088 C146.875589,107.26188 146.751589,107.96688 146.512589,108.65188 C146.274589,109.33688 143.504589,115.52288 142.778589,117.12088 C142.405589,117.94088 142.083589,118.59488 141.855589,119.04088 C141.855589,119.04088 141.845589,119.07188 141.814589,119.12388 C141.617589,119.50788 141.503589,119.71588 141.503589,119.71588 C141.503589,119.71588 141.503589,119.71588 141.503589,119.72588 C141.347589,120.00588 141.181589,120.26588 141.098589,120.26588 C141.036589,120.26588 140.922589,119.51788 141.119589,118.50088 C141.534589,116.35288 142.519589,113.01088 142.509589,112.89688 C142.509589,112.83488 142.695589,112.25388 141.866589,111.95288 C141.057589,111.65188 140.766589,112.14988 140.694589,112.14988 C140.621589,112.14988 140.569589,112.32588 140.569589,112.32588 C140.569589,112.32588 141.471589,108.56888 138.847589,108.56888 C137.209589,108.56888 134.947589,110.36488 133.827589,111.98388 C133.122589,112.36788 131.618589,113.18788 130.010589,114.06988 C129.398589,114.41188 128.766589,114.75488 128.174589,115.07688 C128.133589,115.03488 128.092589,114.98288 128.050589,114.94188 C124.876589,111.54788 119.006589,109.14988 119.255589,104.59388 C119.348589,102.93388 119.918589,98.5748797 130.529589,93.2818797 C139.262589,88.9748797 146.212589,90.1678797 147.415589,92.8148797 C149.136589,96.5928797 143.691589,103.60788 134.667589,104.62488 C131.224589,105.00888 129.419589,103.68088 128.963589,103.18288 C128.486589,102.66388 128.413589,102.63288 128.237589,102.73688 C127.946589,102.89188 128.133589,103.35888 128.237589,103.62888 C128.506589,104.33488 129.616589,105.57988 131.494589,106.19288 C133.153589,106.73188 137.188589,107.03288 142.073589,105.14388 C147.539589,103.02688 151.812589,97.1428797 150.557589,92.2128797 C149.302589,87.2108797 141.005589,85.5598797 133.153589,88.3518797 C128.486589,90.0128797 123.424589,92.6278797 119.783589,96.0318797 C115.458589,100.07988 114.774589,103.59788 115.054589,105.07188 C116.060589,110.30188 123.269589,113.70688 126.152589,116.22888 C126.007589,116.31188 125.872589,116.38388 125.758589,116.44588 C124.316589,117.16288 118.819589,120.03688 117.450589,123.07788 C115.894589,126.52388 117.699589,128.99388 118.891589,129.32588 C122.594589,130.35288 126.401589,128.50588 128.444589,125.45488 C130.487589,122.40388 130.239589,118.43888 129.295589,116.62288 C129.284589,116.60188 129.274589,116.58088 129.253589,116.56088 C129.627589,116.34288 130.010589,116.11388 130.384589,115.89588 C131.120589,115.46088 131.846589,115.05588 132.469589,114.72388 C132.116589,115.68888 131.857589,116.84088 131.732589,118.50088 C131.577589,120.45288 132.375589,122.98488 133.423589,123.98088 C133.890589,124.41688 134.439589,124.42688 134.792589,124.42688 C136.016589,124.42688 136.565589,123.40988 137.177589,122.20588 C137.924589,120.73288 138.598589,119.01988 138.598589,119.01988 C138.598589,119.01988 137.758589,123.64888 140.040589,123.64888 C140.870589,123.64888 141.710589,122.56988 142.083589,122.01988 C142.083589,122.02988 142.083589,122.02988 142.083589,122.02988 C142.083589,122.02988 142.104589,121.99888 142.146589,121.92588 C142.229589,121.79088 142.281589,121.70788 142.281589,121.70788 C142.281589,121.70788 142.281589,121.69788 142.281589,121.68788 C142.612589,121.10588 143.359589,119.78788 144.469589,117.59788 C145.900589,114.77588 147.280589,111.24688 147.280589,111.24688 C147.280589,111.24688 147.404589,112.10788 147.830589,113.54088 C148.078589,114.38088 148.597589,115.30488 149.012589,116.19688 C148.680589,116.66388 148.473589,116.92388 148.473589,116.92388 C148.473589,116.92388 148.473589,116.92388 148.483589,116.93388 C148.213589,117.28688 147.923589,117.67088 147.601589,118.04488 C146.471589,119.39388 145.122589,120.93988 144.936589,121.38688 C144.718589,121.91588 144.770589,122.29988 145.185589,122.61088 C145.485589,122.83988 146.025589,122.87088 146.575589,122.83988 C147.591589,122.76688 148.307589,122.51788 148.659589,122.36188 C149.209589,122.16488 149.852589,121.86388 150.454589,121.41788 C151.563589,120.59788 152.238589,119.42488 152.175589,117.87888 C152.144589,117.02788 151.864589,116.17688 151.522589,115.37688 C151.626589,115.23188 151.719589,115.08688 151.823589,114.94188 C153.576589,112.37788 154.934589,109.56588 154.934589,109.56588 C154.934589,109.56588 155.059589,110.42688 155.484589,111.85888 C155.692589,112.58588 156.117589,113.37388 156.490589,114.14188 C154.841589,115.48088 153.825589,117.03788 153.462589,118.05488 C152.808589,119.94388 153.316589,120.79488 154.281589,120.99188 C154.717589,121.08588 155.339589,120.87788 155.795589,120.68088 C156.376589,120.49388 157.061589,120.17188 157.714589,119.69488 C158.824589,118.87488 159.892589,117.73288 159.830589,116.18688 C159.799589,115.48088 159.612589,114.78588 159.353589,114.11088 C160.753589,113.52988 162.558589,113.20788 164.860589,113.47788 C169.798589,114.05888 170.773589,117.14188 170.586589,118.43888 C170.399589,119.73588 169.362589,120.44188 169.020589,120.65988 C168.677589,120.87788 168.563589,120.95088 168.594589,121.10588 C168.636589,121.33488 168.802589,121.32388 169.092589,121.28288 C169.497589,121.20988 171.685589,120.23488 171.779589,117.84788 C171.934589,114.79588 169.030589,111.46488 163.896589,111.49588 Z M125.810589,124.34388 C124.171589,126.12888 121.889589,126.80388 120.904589,126.23288 C119.846589,125.62088 120.261589,122.98488 122.273589,121.09588 C123.497589,119.94388 125.073589,118.87488 126.121589,118.22088 C126.359589,118.07588 126.712589,117.86788 127.137589,117.60888 C127.210589,117.56688 127.251589,117.54688 127.251589,117.54688 C127.334589,117.49488 127.417589,117.44288 127.500589,117.39088 C128.237589,120.08888 127.531589,122.46588 125.810589,124.34388 Z M137.738589,116.22888 C137.167589,117.61888 135.974589,121.17888 135.248589,120.98188 C134.626589,120.81588 134.242589,118.11688 135.124589,115.44988 C135.570589,114.11088 136.514589,112.51288 137.063589,111.88988 C137.955589,110.89388 138.941589,110.56188 139.179589,110.96688 C139.480589,111.49588 138.090589,115.35688 137.738589,116.22888 Z M147.581589,120.93988 C147.342589,121.06488 147.114589,121.14788 147.010589,121.08588 C146.938589,121.04388 147.114589,120.87788 147.114589,120.87788 C147.114589,120.87788 148.348589,119.54988 148.836589,118.94788 C149.116589,118.59488 149.448589,118.17988 149.800589,117.71288 C149.800589,117.75388 149.800589,117.80588 149.800589,117.84788 C149.800589,119.43488 148.265589,120.50388 147.581589,120.93988 Z M155.173589,119.20688 C154.997589,119.08288 155.028589,118.66688 155.619589,117.36988 C155.847589,116.86188 156.387589,116.01088 157.310589,115.19088 C157.413589,115.52288 157.486589,115.84488 157.476589,116.14488 C157.465589,118.14888 156.034589,118.89588 155.173589,119.20688 Z" id="Shape"></path>
        </g>
    </g>
</svg>