<?xml version="1.0" encoding="UTF-8"?>
<svg width="153px" height="75px" viewBox="0 0 153 75" version="1.1" xmlns="http://www.w3.org/2000/svg" xmlns:xlink="http://www.w3.org/1999/xlink">
    <title>Slice</title>
    <g id="Page-1" stroke="none" stroke-width="1" fill="none" fill-rule="evenodd">
        <g id="Group-13" transform="translate(-67.000000, -71.000000)">
            <g id="Group-23" transform="translate(68.000000, 90.458000)">
                <path d="M74.77,5.634 C74.77,6.374 74.63,7.106 74.34,7.79 C74.06,8.473 73.65,9.094 73.13,9.617 C72.6,10.14 71.99,10.555 71.3,10.838 C70.62,11.122 69.89,11.267 69.15,11.267 C68.41,11.267 67.68,11.122 67,10.838 C66.32,10.555 65.7,10.14 65.18,9.617 C64.66,9.094 64.24,8.473 63.96,7.79 C63.68,7.106 63.53,6.374 63.53,5.634 C63.53,4.894 63.68,4.162 63.96,3.478 C64.24,2.795 64.66,2.174 65.18,1.65 C65.7,1.127 66.32,0.712 67,0.429 C67.68,0.146 68.41,0 69.15,0 C69.89,0 70.62,0.146 71.3,0.429 C71.99,0.712 72.6,1.127 73.13,1.65 C73.65,2.174 74.06,2.795 74.34,3.478 C74.63,4.162 74.77,4.894 74.77,5.634 Z" id="Path" fill="#E51837" fill-rule="nonzero"></path>
                <path d="M0,33.828 L1.245,11.462 L9.857,12.971 C12.887,13.502 15.07,14.542 16.39,16.092 C17.72,17.641 18.31,19.831 18.15,22.662 C18,25.3 17.27,27.117 15.94,28.114 C14.61,29.11 12.58,29.368 9.842,28.888 L7.583,28.492 L7.215,35.092 L0,33.828 Z M8.142,18.949 L7.934,22.677 L9.057,22.873 C9.741,22.993 10.275,22.925 10.658,22.668 C11.041,22.411 11.249,21.988 11.282,21.397 C11.315,20.806 11.153,20.312 10.797,19.916 C10.442,19.519 9.93,19.263 9.264,19.146 L8.142,18.949 Z" id="Shape" fill="#E51837" fill-rule="nonzero"></path>
                <polygon id="Path" fill="#E51837" fill-rule="nonzero" points="18.73 36.622 19.46 14.92 33.14 16 32.94 21.885 26.47 21.374 26.4 23.464 32.27 23.928 32.08 29.487 26.21 29.023 26.13 31.306 32.77 31.83 32.57 37.715"></polygon>
                <polygon id="Path" fill="#E51837" fill-rule="nonzero" points="38.16 37.54 38.44 23.23 34.57 23.113 34.7 16.154 49.41 16.596 49.27 23.555 45.4 23.439 45.12 37.749"></polygon>
                <path d="M52.99,35.37 L55.02,29.418 C56.13,30.102 57.11,30.591 57.97,30.886 C58.82,31.182 59.61,31.308 60.34,31.265 C60.85,31.235 61.24,31.114 61.52,30.903 C61.8,30.692 61.93,30.421 61.91,30.091 C61.88,29.514 61.12,29.118 59.64,28.902 C59.17,28.826 58.79,28.768 58.53,28.727 C56.96,28.441 55.74,27.84 54.86,26.925 C53.98,26.009 53.5,24.834 53.42,23.397 C53.28,21.167 53.97,19.306 55.48,17.813 C57,16.32 59.04,15.497 61.63,15.344 C62.81,15.274 63.99,15.36 65.16,15.604 C66.33,15.847 67.52,16.251 68.72,16.815 L66.78,22.378 C66.03,21.891 65.29,21.53 64.55,21.294 C63.82,21.058 63.11,20.96 62.43,21 C61.91,21.031 61.51,21.142 61.24,21.333 C60.97,21.525 60.84,21.777 60.86,22.089 C60.9,22.674 61.96,23.128 64.05,23.45 C64.38,23.506 64.64,23.548 64.82,23.575 C66.27,23.812 67.43,24.402 68.31,25.345 C69.18,26.289 69.67,27.465 69.75,28.873 C69.88,31.169 69.17,33.094 67.6,34.647 C66.03,36.2 63.92,37.055 61.27,37.212 C59.91,37.293 58.54,37.179 57.16,36.872 C55.78,36.565 54.39,36.065 52.99,35.37 Z" id="Path" fill="#0068B3" fill-rule="nonzero"></path>
                <path d="M88.49,33.979 L87.75,25.899 C87.7,25.276 87.66,24.654 87.61,24.035 C87.56,23.416 87.53,22.793 87.49,22.167 C87.42,22.77 87.32,23.412 87.18,24.093 C87.05,24.774 86.88,25.505 86.69,26.283 L84.64,34.504 L80.87,35.016 L78.88,27.347 C78.68,26.621 78.52,25.936 78.39,25.29 C78.26,24.644 78.16,24.03 78.09,23.447 C78.05,24.092 78.01,24.728 77.96,25.355 C77.92,25.982 77.87,26.614 77.82,27.251 L77.02,35.541 L70.81,36.386 L73.88,15.316 L80.42,14.427 L81.66,19.365 C81.7,19.52 81.75,19.751 81.83,20.06 C82.36,22.143 82.68,23.872 82.79,25.248 L82.9,25.233 C83,24.345 83.15,23.394 83.34,22.38 C83.54,21.366 83.8,20.221 84.12,18.945 L85.45,13.742 L91.97,12.854 L94.71,33.134 L88.49,33.979 Z" id="Path" fill="#0068B3" fill-rule="nonzero"></path>
                <path d="M104.33,25.148 L106.97,25.092 L106.43,22.762 C106.17,21.583 105.99,20.674 105.9,20.037 C105.8,19.399 105.74,18.798 105.72,18.235 L105.61,18.237 C105.59,18.802 105.53,19.405 105.43,20.046 C105.33,20.688 105.15,21.604 104.88,22.795 L104.33,25.148 Z M95.91,32.829 L102.25,12.044 L109.3,11.896 L115.4,32.42 L108.59,32.563 L108.03,29.979 L103.26,30.079 L102.71,32.686 L95.91,32.829 Z" id="Shape" fill="#0068B3" fill-rule="nonzero"></path>
                <path d="M123.9,17.988 L123.88,21.919 L125,21.964 C125.69,21.991 126.22,21.845 126.59,21.525 C126.96,21.206 127.14,20.734 127.15,20.111 C127.15,19.47 126.97,18.97 126.6,18.612 C126.23,18.253 125.7,18.061 125.02,18.033 L123.9,17.988 Z M116.78,32.645 L116.86,12.525 L125.91,12.887 C128.54,12.992 130.54,13.654 131.93,14.873 C133.31,16.092 134,17.796 133.99,19.986 C133.98,21.415 133.63,22.579 132.93,23.476 C132.23,24.374 131.28,24.877 130.1,24.985 L135.42,33.389 L127.35,33.067 L123.87,26.289 L123.84,32.927 L116.78,32.645 Z" id="Shape" fill="#0068B3" fill-rule="nonzero"></path>
                <polygon id="Path" fill="#0068B3" fill-rule="nonzero" points="138.76 34.506 139.04 20.607 135.16 20.055 135.3 13.296 150 15.391 149.86 22.15 145.99 21.598 145.71 35.497"></polygon>
                <path d="M17.45,6.197 C35.11,-1.682 45.49,3.21 51.17,16.334 C39.46,2.616 28.42,3.658 17.45,6.197 Z" id="Path" fill="#0064B1"></path>
                <path d="M60.44,5.915 C53.55,11.675 53.13,14.998 52.01,18.587 C54.88,14.577 58.05,11.171 62.41,10.139 C60.56,8.731 60.96,7.323 60.44,5.915 Z" id="Path" fill="#0064B1"></path>
                <path d="M65.5,5.071 C66.36,1 68.81,1.689 71.12,1.973 C69.12,2.747 66.81,2.912 65.5,5.071 Z" id="Path" fill="#FFFFFF"></path>
            </g>
        </g>
    </g>
</svg>