<?xml version="1.0" encoding="UTF-8"?>
<svg width="153px" height="75px" viewBox="0 0 153 75" version="1.1" xmlns="http://www.w3.org/2000/svg" xmlns:xlink="http://www.w3.org/1999/xlink">
    <title>Slice</title>
    <g id="Page-1" stroke="none" stroke-width="1" fill="none" fill-rule="evenodd">
        <g id="Group-15" transform="translate(-67.000000, -71.000000)" fill="#000000" fill-rule="nonzero">
            <path d="M161.5,96.0833 L161.5,105.4583 C161.5,106.6041 160.562,107.5416 159.417,107.5416 L139.271,107.5416 C138.125,107.5416 137.187,106.6041 137.187,105.4583 L137.187,96.0833 C137.187,94.9375 138.125,94 139.271,94 L159.417,94 C160.562,94 161.5,94.9375 161.5,96.0833 Z M148.312,121.0833 L148.312,111.7083 C148.312,110.5625 147.375,109.625 146.229,109.625 L139.292,109.625 C138.146,109.625 137.208,110.5625 137.208,111.7083 L137.208,121.0833 C137.208,122.2293 138.146,123.1663 139.292,123.1663 L146.229,123.1663 C147.375,123.1663 148.312,122.2293 148.312,121.0833 Z M150.396,111.7083 L150.396,121.0833 C150.396,122.2293 151.333,123.1663 152.479,123.1663 L159.417,123.1663 C160.562,123.1663 161.5,122.2293 161.5,121.0833 L161.5,111.7083 C161.5,110.5625 160.562,109.625 159.417,109.625 L152.479,109.625 C151.312,109.625 150.396,110.5625 150.396,111.7083 Z M135.104,121.0833 L135.104,96.0833 C135.104,94.9375 134.167,94 133.021,94 L126.083,94 C124.937,94 124,94.9375 124,96.0833 L124,121.0833 C124,122.2293 124.937,123.1663 126.083,123.1663 L133.021,123.1663 C134.187,123.1663 135.104,122.2293 135.104,121.0833 Z" id="Shape"></path>
        </g>
    </g>
</svg>