<?xml version="1.0" encoding="UTF-8"?>
<svg width="153px" height="75px" viewBox="0 0 153 75" version="1.1" xmlns="http://www.w3.org/2000/svg" xmlns:xlink="http://www.w3.org/1999/xlink">
    <title>Slice</title>
    <g id="Page-1" stroke="none" stroke-width="1" fill="none" fill-rule="evenodd">
        <g id="Group-14" transform="translate(-67.000000, -71.000000)" fill="#2B2B4B" fill-rule="nonzero">
            <g id="Group" transform="translate(131.000000, 90.000000)">
                <path d="M0,32.875 L0.521,37.5 L3.896,34.292 L9.667,18.4583 C8.25,18.1042 7,17.3958 5.979,16.4167 L0,32.875 Z" id="Path"></path>
                <path d="M17.521,16.4167 C16.5,17.3958 15.229,18.1042 13.833,18.4583 L19.604,34.292 L22.979,37.5 L23.521,32.875 L17.521,16.4167 Z" id="Path"></path>
                <path d="M17.875,11.6667 C18.5,8.4167 16.625,5.5417 13.833,4.5417 L13.833,2.0833 C13.833,0.9375 12.896,0 11.75,0 C10.604,0 9.667,0.9375 9.667,2.0833 L9.667,4.5417 C7.25,5.4167 5.5,7.7083 5.5,10.4167 C5.5,14.25 8.958,17.2917 12.917,16.5625 C15.375,16.1042 17.396,14.125 17.875,11.6667 Z M11.75,12.5 C10.604,12.5 9.667,11.5625 9.667,10.4167 C9.667,9.2708 10.604,8.3333 11.75,8.3333 C12.896,8.3333 13.833,9.2708 13.833,10.4167 C13.833,11.5625 12.896,12.5 11.75,12.5 Z" id="Shape"></path>
            </g>
        </g>
    </g>
</svg>