<?xml version="1.0" encoding="UTF-8"?>
<svg width="287px" height="173px" viewBox="0 0 287 173" version="1.1" xmlns="http://www.w3.org/2000/svg" xmlns:xlink="http://www.w3.org/1999/xlink">
    <title>LOGO</title>
    <g id="Page-1" stroke="none" stroke-width="1" fill="none" fill-rule="evenodd">
        <g id="LOGO" transform="translate(1.000000, 1.000000)" fill="#F4F4F4" fill-rule="nonzero">
            <g id="Group" transform="translate(73.356900, 71.000700)">
                <path d="M1.42108547e-14,22.034 C2.4323,24.0329 5.9936,25.4239 9.1208,25.4239 C11.0753,25.4239 13.7248,24.7718 13.7248,22.3382 C13.7248,17.0361 0.4778,18.1226 0.4778,8.3878 C0.4778,5.9106 1.6937,3.5202 3.6919,2.0861 C5.907,0.5215 8.5996,0 11.2493,0 C13.6816,0 16.2876,0.4346 18.5461,1.3038 L18.5461,6.3886 C16.7219,5.2152 14.5937,4.346 12.422,4.346 C10.7281,4.346 8.6433,5.0848 8.6433,7.1274 C8.6433,9.2135 11.1624,10.0393 12.7695,10.7346 C14.8543,11.6473 16.8088,12.473 18.5459,13.9941 C20.6307,15.8195 21.7599,17.7749 21.7599,20.5566 C21.7599,23.3815 20.5872,25.9022 18.2853,27.5969 C15.7227,29.4663 12.943,29.8573 9.8594,29.8573 C6.9928,29.8573 4.1265,29.3353 1.4333,28.2925 L1.42108547e-14,22.034 Z" id="Path"></path>
                <path d="M42.8241,28.5093 C40.7401,29.4223 38.3071,29.8563 36.0051,29.8563 C33.0521,29.8563 29.7511,29.5093 27.3191,27.7272 C24.5389,25.728 23.3662,22.4685 23.3662,19.2092 C23.3662,13.1248 27.9701,8.7353 34.0071,8.7353 C40.8701,8.7353 44.1711,12.6902 44.3011,19.3828 L30.8371,19.3828 C30.8371,23.1201 33.3561,25.8149 37.2211,25.8149 C39.6541,25.8149 42.3471,24.7284 44.5181,23.5984 L42.8241,28.5093 Z M36.9171,15.6887 C36.9171,13.9935 36.0921,12.5161 34.0071,12.5161 C32.0961,12.5161 31.0541,13.95 30.8371,15.6887 L36.9171,15.6887 Z" id="Shape"></path>
                <path d="M55.3771,11.0379 C56.6361,9.4299 58.5041,8.7345 60.7191,8.7345 C63.0641,8.7345 65.2361,9.343 66.8431,11.2118 C68.4501,13.0806 68.3201,15.036 68.3201,17.3394 L68.3201,24.5106 C68.3201,26.5532 68.1891,27.8136 69.8401,29.1603 L69.8401,29.2913 L59.2861,29.2913 L59.2861,29.1603 C60.9361,27.8133 60.8061,26.5532 60.8061,24.5106 L60.8061,17.1658 C60.8061,16.2097 60.8061,15.2104 60.1981,14.3846 C59.7201,13.6021 58.8511,13.1675 57.9391,13.1675 C57.2011,13.1675 56.4191,13.5586 55.9851,14.1671 C55.3331,14.9926 55.3771,16.2094 55.3771,17.1656 L55.3771,24.5101 C55.3771,26.5525 55.2461,27.8131 56.8971,29.1603 L56.8971,29.2903 L46.3431,29.2903 L46.3431,29.1603 C47.9931,27.8128 47.8631,26.5525 47.8631,24.5101 L47.8631,14.0796 C47.8631,12.0805 47.9931,10.8201 46.3431,9.4297 L46.3431,9.2993 L52.1631,9.2993 C53.2051,9.2993 54.1171,9.1254 55.2471,8.6474 L55.3771,8.6474 L55.3771,11.0379 L55.3771,11.0379 Z" id="Path"></path>
                <path d="M91.4701,28.5093 C89.3851,29.4223 86.9521,29.8563 84.6511,29.8563 C81.6971,29.8563 78.3961,29.5093 75.9641,27.7272 C73.1841,25.728 72.0121,22.4685 72.0121,19.2092 C72.0121,13.1248 76.6161,8.7353 82.6521,8.7353 C89.5151,8.7353 92.8161,12.6902 92.9461,19.3828 L79.4821,19.3828 C79.4821,23.1201 82.0011,25.8149 85.8661,25.8149 C88.2991,25.8149 90.9921,24.7284 93.1631,23.5984 L91.4701,28.5093 Z M85.5621,15.6887 C85.5621,13.9935 84.7371,12.5161 82.6521,12.5161 C80.7411,12.5161 79.6991,13.95 79.4821,15.6887 L85.5621,15.6887 Z" id="Shape"></path>
                <path d="M112.8831,14.1671 L112.7521,14.1671 C111.4491,13.2979 110.0601,12.7329 108.3221,12.7329 C107.0621,12.7329 105.8031,13.2545 105.0211,14.254 C104.0661,15.4712 103.8921,17.1224 103.8921,18.5566 C103.8921,20.3385 104.4561,22.5984 105.7161,23.9891 C106.6711,25.1191 108.2351,25.5102 109.6691,25.5102 C111.6661,25.5102 113.9251,24.641 115.4021,23.4676 L115.5331,23.4676 L114.1421,28.2045 C111.8411,29.3343 109.2351,29.8563 106.6721,29.8563 C100.6781,29.8563 95.5101,25.9011 95.5101,19.5996 C95.5101,12.4287 101.0701,8.7346 107.7581,8.7346 C109.4521,8.7346 111.1901,9.0388 112.8841,9.1692 L112.8841,14.1671 L112.8831,14.1671 L112.8831,14.1671 Z" id="Path"></path>
                <path d="M137.2921,29.7263 L135.5541,29.8563 C133.3391,29.8563 131.2981,29.3783 129.6471,27.8575 C127.6061,25.9455 127.7801,23.9461 127.7801,21.382 L127.7801,19.9478 L126.3901,20.5999 C125.3041,21.1212 123.9151,21.7734 123.9151,23.2073 C123.9151,24.7287 125.0001,26.0325 126.5641,26.0325 C126.8681,26.0325 127.1291,25.989 127.4321,25.9455 L125.5641,29.7263 L123.3491,29.8563 C121.8721,29.8563 119.9621,29.5963 118.7021,28.8133 C116.9651,27.7709 115.8351,25.7282 115.8351,23.7291 C115.8351,15.6887 127.7801,18.34 127.7801,14.6896 C127.7801,13.3423 126.0851,12.8643 125.0001,12.8643 C123.2191,12.8643 121.1341,13.4727 119.5271,14.2985 L121.5681,9.344 C123.3491,8.8659 125.1731,8.7356 127.0411,8.7356 C129.0821,8.7356 131.3841,9.1267 133.0781,10.3871 C135.2501,12.0385 135.4671,14.5592 135.4671,17.0799 L135.4671,20.5567 C135.4671,23.4688 135.3361,25.8589 139.0721,25.9458 L137.2921,29.7263 L137.2921,29.7263 Z" id="Path"></path>
            </g>
        </g>
    </g>
</svg>