<?xml version="1.0" encoding="UTF-8"?>
<svg width="153px" height="75px" viewBox="0 0 153 75" version="1.1" xmlns="http://www.w3.org/2000/svg" xmlns:xlink="http://www.w3.org/1999/xlink">
    <title>Slice</title>
    <g id="Page-1" stroke="none" stroke-width="1" fill="none" fill-rule="evenodd">
        <g id="Group-21" transform="translate(-67.000000, -71.000000)">
            <g id="Group-22" transform="translate(123.000000, 90.000000)">
                <path d="M20.5,21.8733694 C22.43,21.8733694 24,20.3063694 24,18.3733694 C24,16.4403694 22.43,14.8733694 20.5,14.8733694 C18.57,14.8733694 17,16.4403694 17,18.3733694 C17,20.3063694 18.57,21.8733694 20.5,21.8733694 Z" id="Path" fill="#2B2B4B" fill-rule="nonzero"></path>
                <path d="M20.5,25.8733694 C31.82,25.8733694 41,22.5153694 41,18.3733694 C41,14.2313694 31.82,10.8733694 20.5,10.8733694 C9.18,10.8733694 0,14.2313694 0,18.3733694 C0,22.5153694 9.18,25.8733694 20.5,25.8733694 Z" id="Path" stroke="#2B2B4B" stroke-width="3"></path>
                <path d="M13.68,22.1783694 C19.34,32.0173694 26.97,38.2343694 30.72,36.0633694 C34.47,33.8933694 32.92,24.1573694 27.25,14.3183694 C21.59,4.47836942 13.96,-1.73763058 10.21,0.432369421 C6.46,2.60236942 8.01,12.3383694 13.68,22.1783694 Z" id="Path" stroke="#2B2B4B" stroke-width="3"></path>
                <path d="M13.68,14.3183694 C8.01,24.1573694 6.46,33.8933694 10.21,36.0633694 C13.96,38.2343694 21.59,32.0173694 27.25,22.1773694 C32.92,12.3383694 34.47,2.60236942 30.72,0.432369421 C26.97,-1.73863058 19.34,4.47836942 13.68,14.3183694 Z" id="Path" stroke="#2B2B4B" stroke-width="3"></path>
            </g>
        </g>
    </g>
</svg>