<?xml version="1.0" encoding="UTF-8"?>
<svg width="287px" height="173px" viewBox="0 0 287 173" version="1.1" xmlns="http://www.w3.org/2000/svg" xmlns:xlink="http://www.w3.org/1999/xlink">
    <title>LOGO</title>
    <g id="Page-1" stroke="none" stroke-width="1" fill="none" fill-rule="evenodd">
        <g id="LOGO" transform="translate(1.000000, 1.000000)" fill="#F4F4F4">
            <g id="Group" transform="translate(74.928700, 64.025800)">
                <path d="M31.0123,17.6185 L31.0123,28.0697 L24.8333,28.0697 L24.8333,18.599 C24.8333,15.9962 23.5063,14.7508 21.4964,14.7508 C20.3594,14.7508 19.1459,15.3925 18.0842,16.6 L18.0842,28.0697 L11.9419,28.0697 L11.9419,9.7711 L18.0842,9.7711 L18.0842,11.0166 C19.5639,9.846 21.193,9.2054 23.1648,9.2054 C27.8283,9.2054 31.0123,12.413 31.0123,17.6185 Z" id="Path"></path>
                <path d="M50.3873,27.7293 C47.9993,28.4839 46.6343,28.6349 44.8143,28.6349 C40.3793,28.6349 37.4213,25.3904 37.4213,20.4476 L37.4213,15.0152 L33.8193,15.0152 L33.8193,9.7706 L37.4213,9.7706 L37.4213,3.5465 L43.5633,3.5465 L43.5633,9.7706 L49.8193,9.7706 L49.8193,15.0152 L43.5633,15.0152 L43.5633,20.2598 C43.5633,22.1079 44.6253,23.0135 46.4453,23.0135 C47.3173,23.0135 48.3403,22.8245 49.7053,22.5607 L50.3873,27.7293 Z" id="Path"></path>
                <path d="M58.8793,17.128 L66.3873,17.128 C66.0453,15.129 64.7183,14.0725 62.7463,14.0725 C60.6613,14.0725 59.3343,15.2788 58.8793,17.128 Z M72.0363,20.5994 L72.0733,20.7124 L58.9563,20.7124 C59.4483,22.3726 60.7383,23.655 63.0873,23.655 C64.3773,23.655 65.3623,23.1642 65.8933,22.3335 L71.9593,22.3335 C71.0883,26.1079 67.5623,28.4837 63.0133,28.4837 C56.9843,28.4837 52.9653,24.4846 52.9653,18.9012 C52.9653,13.3547 56.8703,9.3566 62.7463,9.3566 C68.0923,9.3566 72.1493,13.0159 72.1493,18.5244 C72.1493,19.203 72.1493,19.9197 72.0363,20.5994 Z" id="Shape"></path>
                <path d="M88.6053,15.2793 C85.6093,15.3922 83.7153,16.1849 82.2723,17.6182 L82.2723,28.0694 L76.1303,28.0694 L76.1303,9.7708 L82.2723,9.7708 L82.2723,11.7329 C83.9033,10.3376 85.8763,9.469 88.6053,9.469 L88.6053,15.2793 Z" id="Path"></path>
                <path d="M105.3993,21.7306 L105.3993,16.0723 C104.2623,14.7509 102.9353,14.3361 101.5703,14.3361 C99.0673,14.3361 97.2483,16.3731 97.2483,18.9009 C97.2483,21.4288 99.0673,23.4278 101.5703,23.4278 C102.9353,23.4278 104.2623,23.051 105.3993,21.7306 Z M111.5423,28.0687 L105.3993,28.0687 L105.3993,27.0502 C104.0343,27.9178 102.3673,28.4466 100.3573,28.4466 C95.3903,28.4466 91.2203,24.3334 91.2203,18.9009 C91.2203,13.4305 95.3903,9.3564 100.3573,9.3564 C102.3673,9.3564 104.0343,9.8841 105.3993,10.7517 L105.3993,9.7712 L111.5423,9.7712 L111.5423,28.0687 Z" id="Shape"></path>
                <path d="M129.7403,21.8065 L129.7403,16.1471 C128.6033,14.8267 127.2763,14.4108 125.9113,14.4108 C123.4093,14.4108 121.5893,16.4489 121.5893,18.9387 C121.5893,21.5046 123.4093,23.5036 125.9113,23.5036 C127.2763,23.5036 128.6033,23.1268 129.7403,21.8065 Z M135.8823,28.0696 L129.7403,28.0696 L129.7403,27.126 C128.3763,27.9936 126.7083,28.5224 124.6993,28.5224 C119.7323,28.5224 115.5613,24.4092 115.5613,18.9387 C115.5613,13.5063 119.7323,9.4322 124.6993,9.4322 C126.7083,9.4322 128.3763,9.9599 129.7403,10.8275 L129.7403,1.283 L135.8823,1.283 L135.8823,28.0696 Z" id="Shape"></path>
                <polygon id="Path" points="0.5689 9.771 0.5689 23.205 6.7112 18.9355 6.7112 9.771"></polygon>
                <path d="M3.602,6.9037 C5.5738,6.9037 7.2041,5.4324 7.2041,3.4703 C7.2041,1.4713 5.5738,0 3.602,0 C1.5921,0 -1.42108547e-14,1.4713 -1.42108547e-14,3.4703 C-1.42108547e-14,5.4324 1.5921,6.9037 3.602,6.9037 Z" id="Path"></path>
                <polygon id="Path" points="9.0367 42.8322 7.7415 42.8322 5.965 37.7342 4.1973 42.8322 2.9031 42.8322 0.4229 35.3635 1.8054 35.3635 3.5611 40.7782 5.4162 35.3635 6.5237 35.3635 8.3776 40.7782 10.1345 35.3635 11.5159 35.3635"></polygon>
                <path d="M12.6618,39.7642 L15.416,39.7642 C15.3276,39.0002 14.8671,38.5292 14.1327,38.5292 C13.2871,38.5292 12.8048,39.0542 12.6618,39.7642 Z M16.6676,40.5392 L16.6556,40.5392 L12.64,40.5392 C12.7502,41.2712 13.2543,41.8382 14.1982,41.8382 C14.7023,41.8382 15.0646,41.6752 15.2512,41.3582 L16.601,41.3582 C16.3053,42.3082 15.3505,42.9522 14.1655,42.9522 C12.508,42.9522 11.4004,41.7402 11.4004,40.2112 C11.4004,38.6282 12.508,37.4602 14.1327,37.4602 C15.6026,37.4602 16.6883,38.5292 16.6992,40.1242 C16.6992,40.3102 16.6883,40.4082 16.6676,40.5392 Z" id="Shape"></path>
                <path d="M22.0905,40.2012 C22.0905,39.3492 21.4543,38.5952 20.5541,38.5952 C20.0172,38.5952 19.5218,38.7922 19.1606,39.3052 L19.1606,41.0962 C19.5218,41.6202 20.0172,41.8172 20.5541,41.8172 C21.4543,41.8172 22.0905,41.0632 22.0905,40.2012 Z M23.3519,40.2012 C23.3519,41.7082 22.1898,42.9082 20.7407,42.9082 C20.1143,42.9082 19.5775,42.7342 19.1606,42.4282 L19.1606,42.7882 L17.8872,42.7882 L17.8872,35.0358 L19.1606,35.0358 L19.1606,37.9842 C19.5775,37.6792 20.1143,37.5042 20.7407,37.5042 C22.1898,37.5042 23.3519,38.7052 23.3519,40.2012 Z" id="Shape"></path>
                <path d="M31.4313,41.0852 L31.4313,39.3272 C31.0693,38.7922 30.5653,38.5952 30.0273,38.5952 C29.1373,38.5952 28.4913,39.3482 28.4913,40.2112 C28.4913,41.0622 29.1373,41.8172 30.0273,41.8172 C30.5653,41.8172 31.0693,41.6192 31.4313,41.0852 Z M32.6923,37.6242 L32.6923,42.7882 L31.4313,42.7882 L31.4313,42.4272 C31.0023,42.7352 30.4653,42.9082 29.8403,42.9082 C28.3923,42.9082 27.2283,41.7072 27.2283,40.2112 C27.2283,38.7052 28.3923,37.5032 29.8403,37.5032 C30.4653,37.5032 31.0023,37.6782 31.4313,37.9842 L31.4313,37.6242 L32.6923,37.6242 Z" id="Shape"></path>
                <path d="M39.3343,39.9392 L39.3343,42.7882 L38.0723,42.7882 L38.0723,40.0152 C38.0723,39.1082 37.5893,38.6062 36.8003,38.6062 C36.3503,38.6062 35.8553,38.8682 35.4613,39.3482 L35.4613,42.7882 L34.1883,42.7882 L34.1883,37.6242 L35.4613,37.6242 L35.4613,38.0502 C35.9113,37.6782 36.4383,37.4602 37.0633,37.4602 C38.4243,37.4602 39.3343,38.4432 39.3343,39.9392 Z" id="Path"></path>
                <path d="M44.6263,41.0852 L44.6263,39.3162 C44.2643,38.7922 43.7593,38.5952 43.2213,38.5952 C42.3323,38.5952 41.6863,39.3482 41.6863,40.2012 C41.6863,41.0622 42.3323,41.8172 43.2213,41.8172 C43.7593,41.8172 44.2643,41.6192 44.6263,41.0852 Z M45.8873,42.7882 L44.6263,42.7882 L44.6263,42.4182 C44.1973,42.7352 43.6603,42.9082 43.0353,42.9082 C41.5873,42.9082 40.4233,41.7072 40.4233,40.2012 C40.4233,38.7052 41.5873,37.5032 43.0353,37.5032 C43.6603,37.5032 44.1973,37.6782 44.6263,37.9842 L44.6263,35.0362 L45.8873,35.0362 L45.8873,42.7882 Z" id="Shape"></path>
                <polygon id="Path" points="57.9943 42.7882 56.6663 42.7882 56.6663 38.2682 54.5823 41.5982 53.7813 41.5982 51.6633 38.2242 51.6853 42.7882 50.3583 42.7882 50.3583 35.3635 51.3003 35.3635 54.1763 39.9822 57.0513 35.3635 57.9943 35.3635"></polygon>
                <path d="M63.5833,40.2112 C63.5833,39.3372 62.9783,38.6502 62.0903,38.6502 C61.1913,38.6502 60.5873,39.3372 60.5873,40.2112 C60.5873,41.0952 61.1913,41.8052 62.0903,41.8052 C62.9783,41.8052 63.5833,41.0952 63.5833,40.2112 Z M64.8443,40.2112 C64.8443,41.7842 63.6593,42.9512 62.0903,42.9512 C60.5103,42.9512 59.3253,41.7842 59.3253,40.2112 C59.3253,38.6502 60.5103,37.5032 62.0903,37.5032 C63.6593,37.5032 64.8443,38.6502 64.8443,40.2112 Z" id="Shape"></path>
                <path d="M70.2343,40.2012 C70.2343,39.3492 69.5983,38.5952 68.6983,38.5952 C68.1613,38.5952 67.6673,38.7922 67.3053,39.3052 L67.3053,41.0962 C67.6673,41.6202 68.1613,41.8172 68.6983,41.8172 C69.5983,41.8172 70.2343,41.0632 70.2343,40.2012 Z M71.4963,40.2012 C71.4963,41.7082 70.3333,42.9082 68.8843,42.9082 C68.2593,42.9082 67.7223,42.7342 67.3053,42.4282 L67.3053,42.7882 L66.0323,42.7882 L66.0323,35.0358 L67.3053,35.0358 L67.3053,37.9842 C67.7223,37.6792 68.2593,37.5042 68.8843,37.5042 C70.3333,37.5042 71.4963,38.7052 71.4963,40.2012 Z" id="Shape"></path>
                <path d="M72.7723,42.7882 L74.0343,42.7882 L74.0343,37.6232 L72.7723,37.6232 L72.7723,42.7882 Z M72.6083,35.7572 C72.6083,35.3098 72.9593,34.9818 73.3973,34.9818 C73.8363,34.9818 74.1883,35.3098 74.1883,35.7572 C74.1883,36.1812 73.8363,36.5092 73.3973,36.5092 C72.9593,36.5092 72.6083,36.1812 72.6083,35.7572 Z" id="Shape"></path>
                <polygon id="Path" points="75.6043 42.7882 76.8783 42.7882 76.8783 35.035 75.6043 35.035"></polygon>
                <path d="M79.3253,39.7642 L82.0793,39.7642 C81.9903,39.0002 81.5303,38.5292 80.7963,38.5292 C79.9503,38.5292 79.4683,39.0542 79.3253,39.7642 Z M83.3303,40.5392 L83.3183,40.5392 L79.3033,40.5392 C79.4133,41.2712 79.9173,41.8382 80.8613,41.8382 C81.3653,41.8382 81.7273,41.6752 81.9143,41.3582 L83.2643,41.3582 C82.9683,42.3082 82.0133,42.9522 80.8283,42.9522 C79.1713,42.9522 78.0633,41.7402 78.0633,40.2112 C78.0633,38.6282 79.1713,37.4602 80.7963,37.4602 C82.2653,37.4602 83.3513,38.5292 83.3623,40.1242 C83.3623,40.3102 83.3513,40.4082 83.3303,40.5392 Z" id="Shape"></path>
                <path d="M93.4393,37.5582 L92.1343,37.5582 C92.0123,36.8162 91.5183,36.3242 90.4993,36.3242 C89.5983,36.3242 89.0163,36.7282 89.0163,37.4052 C89.0163,37.9732 89.4453,38.2462 90.2243,38.3992 L91.1683,38.5852 C92.5943,38.8682 93.4063,39.4362 93.4063,40.6262 C93.4063,42.0142 92.2543,42.9412 90.5203,42.9412 C88.6883,42.9412 87.4483,41.9582 87.3163,40.3642 L88.6223,40.3642 C88.7533,41.2382 89.4783,41.7842 90.5973,41.7842 C91.5073,41.7842 92.0563,41.4012 92.0563,40.7792 C92.0563,40.3862 91.8043,40.0042 90.9603,39.8612 L89.7313,39.6212 C88.2823,39.3482 87.6243,38.6182 87.6243,37.5152 C87.6243,36.1282 88.7323,35.2002 90.4113,35.2002 C91.7283,35.2002 93.2633,35.7682 93.4393,37.5582 Z" id="Path"></path>
                <path d="M98.6993,40.2112 C98.6993,39.3372 98.0943,38.6502 97.2063,38.6502 C96.3073,38.6502 95.7043,39.3372 95.7043,40.2112 C95.7043,41.0952 96.3073,41.8052 97.2063,41.8052 C98.0943,41.8052 98.6993,41.0952 98.6993,40.2112 Z M99.9603,40.2112 C99.9603,41.7842 98.7753,42.9512 97.2063,42.9512 C95.6263,42.9512 94.4413,41.7842 94.4413,40.2112 C94.4413,38.6502 95.6263,37.5032 97.2063,37.5032 C98.7753,37.5032 99.9603,38.6502 99.9603,40.2112 Z" id="Shape"></path>
                <polygon id="Path" points="101.1483 42.7882 102.4213 42.7882 102.4213 35.035 101.1483 35.035"></polygon>
                <path d="M108.9503,42.7882 L107.6893,42.7882 L107.6893,42.3522 C107.2393,42.7342 106.7123,42.9512 106.0763,42.9512 C104.7153,42.9512 103.8043,41.9702 103.8043,40.4732 L103.8043,37.6242 L105.0653,37.6242 L105.0653,40.3972 C105.0653,41.2922 105.5493,41.8062 106.3393,41.8062 C106.7993,41.8062 107.2943,41.5332 107.6893,41.0412 L107.6893,37.6242 L108.9503,37.6242 L108.9503,42.7882 Z" id="Path"></path>
                <path d="M114.2423,42.7342 C113.6603,42.9082 113.3973,42.9512 112.9463,42.9512 C111.7073,42.9512 110.9403,42.1332 110.9403,40.8012 L110.9403,38.6832 L109.7543,38.6832 L109.7543,37.6242 L110.9403,37.6242 L110.9403,35.7352 L112.2013,35.7352 L112.2013,37.6242 L114.1223,37.6242 L114.1223,38.6832 L112.2013,38.6832 L112.2013,40.8012 C112.2013,41.4902 112.5743,41.7842 113.1883,41.7842 C113.4733,41.7842 113.7923,41.7292 114.0663,41.6532 L114.2423,42.7342 Z" id="Path"></path>
                <path d="M115.4293,42.7882 L116.6913,42.7882 L116.6913,37.6232 L115.4293,37.6232 L115.4293,42.7882 Z M115.2633,35.7572 C115.2633,35.3098 115.6163,34.9818 116.0533,34.9818 C116.4923,34.9818 116.8453,35.3098 116.8453,35.7572 C116.8453,36.1812 116.4923,36.5092 116.0533,36.5092 C115.6163,36.5092 115.2633,36.1812 115.2633,35.7572 Z" id="Shape"></path>
                <path d="M122.2123,40.2112 C122.2123,39.3372 121.6073,38.6502 120.7193,38.6502 C119.8203,38.6502 119.2153,39.3372 119.2153,40.2112 C119.2153,41.0952 119.8203,41.8052 120.7193,41.8052 C121.6073,41.8052 122.2123,41.0952 122.2123,40.2112 Z M123.4733,40.2112 C123.4733,41.7842 122.2883,42.9512 120.7193,42.9512 C119.1393,42.9512 117.9543,41.7842 117.9543,40.2112 C117.9543,38.6502 119.1393,37.5032 120.7193,37.5032 C122.2883,37.5032 123.4733,38.6502 123.4733,40.2112 Z" id="Shape"></path>
                <path d="M129.7523,39.9392 L129.7523,42.7882 L128.4903,42.7882 L128.4903,40.0152 C128.4903,39.1082 128.0073,38.6062 127.2183,38.6062 C126.7683,38.6062 126.2733,38.8682 125.8793,39.3482 L125.8793,42.7882 L124.6063,42.7882 L124.6063,37.6242 L125.8793,37.6242 L125.8793,38.0502 C126.3293,37.6782 126.8563,37.4602 127.4813,37.4602 C128.8423,37.4602 129.7523,38.4432 129.7523,39.9392 Z" id="Path"></path>
                <path d="M131.9373,41.0522 C132.0473,41.6632 132.5083,41.9262 133.2113,41.9262 C133.8243,41.9262 134.2533,41.7082 134.2533,41.3572 C134.2533,41.0852 134.0333,40.8882 133.6273,40.8112 L132.4973,40.6262 C131.7073,40.4842 130.9613,40.0792 130.9613,39.1412 C130.9613,38.1042 131.8503,37.4822 133.1443,37.4822 C134.0333,37.4822 135.3183,37.7872 135.4383,39.1962 L134.2643,39.2082 C134.2203,38.6822 133.7373,38.4532 133.1443,38.4532 C132.5303,38.4532 132.2123,38.7052 132.2123,39.0102 C132.2123,39.2622 132.3873,39.5022 132.9473,39.6002 L133.9133,39.7532 C134.7023,39.8952 135.4603,40.2442 135.4603,41.2492 C135.4603,42.3512 134.4833,42.9512 133.1783,42.9512 C131.9933,42.9512 130.8953,42.4612 130.7753,41.0402 L131.9373,41.0522 Z" id="Path"></path>
            </g>
        </g>
    </g>
</svg>