<?xml version="1.0" encoding="UTF-8"?>
<svg width="153px" height="75px" viewBox="0 0 153 75" version="1.1" xmlns="http://www.w3.org/2000/svg" xmlns:xlink="http://www.w3.org/1999/xlink">
    <title>Slice</title>
    <g id="Page-1" stroke="none" stroke-width="1" fill="none" fill-rule="evenodd">
        <g id="Group-9" transform="translate(-67.000000, -71.000000)" fill-rule="nonzero">
            <g id="Group-26" transform="translate(76.277000, 93.314300)">
                <path d="M48.653,16.8207 C50.253,16.8207 51.483,16.4677 52.343,15.7637 C53.193,15.0587 53.623,14.0197 53.623,12.6447 C53.623,11.3067 53.193,10.2937 52.343,9.6067 C51.483,8.9197 50.253,8.5757 48.653,8.5757 L43.903,8.5757 L43.903,16.8207 L48.653,16.8207 Z M53.403,24.9857 L49.693,19.0967 C49.273,19.1327 48.923,19.1497 48.653,19.1497 L43.903,19.1497 L43.903,24.9857 L41.343,24.9857 L41.343,6.247 L48.653,6.247 C51.023,6.247 52.853,6.7957 54.143,7.8927 C55.433,8.9907 56.073,10.5477 56.073,12.5647 C56.073,14.0817 55.723,15.3577 55.023,16.3927 C54.313,17.4277 53.313,18.1777 51.993,18.6417 L56.343,24.9857 L53.403,24.9857 Z" id="Shape" fill="#2B2B4B"></path>
                <path d="M66.683,9.3517 C65.573,9.9947 64.683,10.8647 64.023,11.9617 C63.373,13.0597 63.043,14.2687 63.043,15.5897 C63.043,16.9107 63.373,18.1237 64.023,19.2307 C64.683,20.3367 65.573,21.2157 66.683,21.8677 C67.793,22.5187 69.003,22.8437 70.303,22.8437 C71.593,22.8437 72.793,22.5187 73.893,21.8677 C74.983,21.2157 75.853,20.3367 76.503,19.2307 C77.153,18.1237 77.483,16.9107 77.483,15.5897 C77.483,14.2687 77.153,13.0597 76.503,11.9617 C75.853,10.8647 74.983,9.9947 73.893,9.3517 C72.793,8.7097 71.593,8.3877 70.303,8.3877 C69.003,8.3877 67.793,8.7097 66.683,9.3517 Z M75.223,7.3447 C76.723,8.1837 77.913,9.3297 78.783,10.7837 C79.653,12.2387 80.093,13.8407 80.093,15.5897 C80.093,17.3387 79.653,18.9497 78.783,20.4207 C77.913,21.8937 76.723,23.0547 75.223,23.9017 C73.723,24.7497 72.073,25.1727 70.273,25.1727 C68.473,25.1727 66.823,24.7497 65.323,23.9017 C63.813,23.0547 62.633,21.8937 61.763,20.4207 C60.883,18.9497 60.453,17.3387 60.453,15.5897 C60.453,13.8407 60.883,12.2387 61.763,10.7837 C62.633,9.3297 63.813,8.1837 65.303,7.3447 C66.803,6.5052 68.453,6.0862 70.273,6.0862 C72.073,6.0862 73.723,6.5052 75.223,7.3447 Z" id="Shape" fill="#2B2B4B"></path>
                <path d="M96.473,21.8397 C97.253,21.2967 97.643,20.5327 97.643,19.5517 C97.643,18.6057 97.253,17.8647 96.473,17.3297 C95.693,16.7937 94.603,16.5267 93.213,16.5267 L87.933,16.5267 L87.933,22.6297 L93.213,22.6297 C94.603,22.6487 95.693,22.3847 96.473,21.8397 Z M95.903,13.4617 C96.533,12.9697 96.843,12.2697 96.843,11.3597 C96.843,10.4677 96.533,9.7797 95.903,9.2987 C95.263,8.8157 94.373,8.5847 93.213,8.6027 L87.933,8.6027 L87.933,14.1967 L93.213,14.1967 C94.373,14.1967 95.263,13.9527 95.903,13.4617 Z M97.843,7.4917 C98.943,8.3207 99.483,9.4687 99.483,10.9307 C99.483,12.0027 99.183,12.9077 98.583,13.6487 C97.973,14.3897 97.153,14.8847 96.103,15.1347 C97.393,15.3307 98.413,15.8527 99.153,16.7007 C99.893,17.5477 100.263,18.6057 100.263,19.8727 C100.263,21.4787 99.663,22.7327 98.463,23.6347 C97.263,24.5347 95.603,24.9857 93.483,24.9857 L85.373,24.9857 L85.373,6.2471 L93.353,6.2471 C95.253,6.2471 96.753,6.6613 97.843,7.4917 Z" id="Shape" fill="#D51478"></path>
                <polygon id="Path" fill="#D51478" points="105.833 24.9857 108.403 24.9857 108.403 6.2463 105.833 6.2463"></polygon>
                <path d="M119.783,9.3517 C118.673,9.9947 117.783,10.8647 117.123,11.9617 C116.463,13.0597 116.133,14.2687 116.133,15.5897 C116.133,16.9107 116.463,18.1237 117.123,19.2307 C117.783,20.3367 118.673,21.2157 119.783,21.8677 C120.893,22.5187 122.093,22.8437 123.393,22.8437 C124.693,22.8437 125.893,22.5187 126.983,21.8677 C128.083,21.2157 128.953,20.3367 129.603,19.2307 C130.253,18.1237 130.573,16.9107 130.573,15.5897 C130.573,14.2687 130.253,13.0597 129.603,11.9617 C128.953,10.8647 128.083,9.9947 126.983,9.3517 C125.893,8.7097 124.693,8.3877 123.393,8.3877 C122.093,8.3877 120.893,8.7097 119.783,9.3517 Z M128.323,7.3447 C129.823,8.1837 131.013,9.3297 131.883,10.7837 C132.753,12.2387 133.193,13.8407 133.193,15.5897 C133.193,17.3387 132.753,18.9497 131.883,20.4207 C131.013,21.8937 129.823,23.0547 128.323,23.9017 C126.813,24.7497 125.163,25.1727 123.373,25.1727 C121.573,25.1727 119.923,24.7497 118.423,23.9017 C116.913,23.0547 115.733,21.8937 114.853,20.4207 C113.983,18.9497 113.553,17.3387 113.553,15.5897 C113.553,13.8407 113.983,12.2387 114.853,10.7837 C115.733,9.3297 116.913,8.1837 118.403,7.3447 C119.903,6.5052 121.553,6.0862 123.373,6.0862 C125.163,6.0862 126.813,6.5052 128.323,7.3447 Z" id="Shape" fill="#D51478"></path>
                <polygon id="Path" fill="#2B2B4B" points="15.283 0 26.023 24.9867 28.693 24.9867 36.993 6.2479 34.293 6.2479 32.343 10.7987 32.343 10.7987 29.993 16.2517 27.433 22.2297 23.483 13.1277 23.493 13.1277 21.823 9.2537 18.053 0"></polygon>
                <polygon id="Path" fill="#2B2B4B" points="10.973 6.2463 8.303 6.2463 0 24.9857 2.696 24.9857 4.645 20.4347 4.648 20.4347 6.993 14.9817 9.553 9.0037 12.363 15.4827 9.873 15.4827 8.533 18.1597 13.523 18.1597 15.163 21.9797 18.933 31.2337 21.703 31.2337"></polygon>
            </g>
        </g>
    </g>
</svg>