<?xml version="1.0" encoding="UTF-8"?>
<svg width="153px" height="75px" viewBox="0 0 153 75" version="1.1" xmlns="http://www.w3.org/2000/svg" xmlns:xlink="http://www.w3.org/1999/xlink">
    <title>Slice</title>
    <g id="Page-1" stroke="none" stroke-width="1" fill="none" fill-rule="evenodd">
        <g id="Group-12" transform="translate(-67.000000, -71.000000)" fill="#18273C" fill-rule="nonzero">
            <path d="M86.728,101.667 C87.402,101.432 88.453,101.333 89.881,101.373 C91.824,101.412 92.994,101.432 93.39,101.432 C93.588,102.412 93.926,103.922 94.401,105.961 C94.877,107.921 95.214,109.431 95.413,110.49 C95.889,109.431 96.444,107.921 97.078,105.961 C97.792,103.765 98.308,102.255 98.625,101.432 L103.205,101.432 C104.315,105.078 105.307,107.941 106.179,110.019 C106.734,108.137 107.488,105.274 108.44,101.432 L115.102,101.432 C114.864,101.902 114.626,102.608 114.388,103.549 C114.071,104.608 113.853,105.333 113.734,105.725 C115.32,103.922 117.917,103.02 121.526,103.02 C122.121,103.02 122.736,103.039 123.37,103.078 C128.168,103.471 130.825,105.255 131.341,108.431 C131.222,105.176 133.502,103.373 138.182,103.02 C139.133,102.941 140.045,102.902 140.918,102.902 C143.099,102.902 144.844,103.157 146.152,103.667 C146.47,103.784 146.886,104.118 147.401,104.667 C147.917,105.176 148.274,105.451 148.472,105.49 C148.433,105.49 148.809,105.353 149.602,105.078 C150.316,104.843 150.772,104.823 150.971,105.02 L150.971,101.196 L156.919,101.196 L156.919,104.784 C157.038,105.02 157.415,105.098 158.049,105.02 C158.723,104.98 159.12,105.059 159.239,105.255 L159.239,108.431 L157.157,108.431 C156.879,109.49 156.74,110.392 156.74,111.137 C156.74,112.313 157.097,113.078 157.811,113.431 C157.653,113.588 157.732,112.666 158.049,110.666 C158.049,110.666 158.049,110.686 158.049,110.725 C158.168,110.725 161.38,107.549 167.685,101.196 L176.132,101.196 L176.132,110.255 C175.934,110.059 176.925,110.137 179.106,110.49 L179.106,112.019 L184.817,112.019 C185.531,112.803 186.581,113.196 187.969,113.196 C188.287,113.196 188.644,113.176 189.04,113.137 C191.063,112.941 192.173,112.196 192.371,110.902 C190.111,111.255 188.128,111.431 186.423,111.431 C182.933,111.431 180.574,110.725 179.344,109.313 C178.512,108.451 178.135,107.314 178.214,105.902 C178.293,104.49 178.809,103.373 179.761,102.549 C181.347,101.216 184.103,100.549 188.029,100.549 C191.796,100.588 194.532,101.177 196.238,102.314 C197.745,103.294 198.696,105 199.093,107.431 C199.212,108.098 199.271,108.745 199.271,109.372 C199.271,110.98 198.875,112.392 198.082,113.607 C196.614,115.843 193.561,117.058 188.921,117.254 C188.525,117.254 188.148,117.254 187.791,117.254 C183.746,117.254 180.931,116.274 179.344,114.313 C179.384,114.274 178.393,114.352 176.37,114.548 C176.568,114.392 176.489,115.215 176.132,117.019 L170.184,117.019 L170.184,114.548 L159.417,114.548 C159.616,114.431 159.556,115.176 159.239,116.784 C157.97,116.98 156.84,117.078 155.848,117.078 C153.231,117.078 151.605,116.372 150.971,114.96 L150.971,108.666 C150.891,108.588 150.376,108.51 149.424,108.431 C148.75,108.353 148.433,108.059 148.472,107.549 L142.762,107.549 C142.484,107.588 142.246,107.451 142.048,107.137 C141.85,106.706 141.632,106.451 141.394,106.372 C140.085,105.941 138.935,106.098 137.944,106.843 C138.102,107.51 139.391,107.961 141.81,108.196 C146.093,108.627 148.532,109.235 149.127,110.019 C149.682,110.725 149.959,111.49 149.959,112.313 C149.959,112.862 149.84,113.451 149.602,114.078 C148.77,116.313 145.795,117.431 140.68,117.431 C140.601,117.431 140.521,117.431 140.442,117.431 C135.207,117.391 132.174,116.195 131.341,113.843 C129.596,116.195 126.701,117.372 122.656,117.372 C121.942,117.372 121.209,117.333 120.455,117.254 C115.181,116.744 112.544,114.607 112.544,110.843 C112.544,110.725 112.544,110.608 112.544,110.49 C112.108,111.196 111.434,113.294 110.522,116.784 L103.443,116.784 C103.245,115.96 102.808,114.666 102.134,112.902 C101.5,111.294 101.083,109.96 100.885,108.902 C99.577,112.274 98.664,114.901 98.149,116.784 L91.308,116.784 C91.031,115.882 90.277,113.352 89.048,109.196 C88.136,106.059 87.363,103.549 86.728,101.667 Z M119.494,108.708 L126.617,108.708 C126.494,107.208 125.307,106.458 123.055,106.458 C120.804,106.458 119.617,107.208 119.494,108.708 Z M119.494,112.063 C119.534,113.333 120.463,114.006 122.279,114.083 C122.44,114.083 122.602,114.083 122.763,114.083 C124.176,114.083 125.347,113.775 126.275,113.159 C126.598,113.159 126.981,113.159 127.425,113.159 C128.717,113.159 130.453,113.121 132.632,113.044 C134.65,112.967 136.366,112.929 137.779,112.929 C138.263,112.929 138.687,112.929 139.05,112.929 C139.373,113.583 140.12,113.987 141.29,114.14 C141.532,114.179 141.734,114.198 141.896,114.198 C142.743,114.198 143.349,113.929 143.712,113.39 C142.945,112.698 141.331,112.275 138.868,112.121 C136.204,111.967 134.489,111.64 133.722,111.14 C133.439,110.986 133.177,110.717 132.935,110.332 C132.693,109.871 132.471,109.563 132.269,109.409 C132.39,111.063 132.39,111.948 132.269,112.063 L119.494,112.063 Z M165.179,110.18 C165.179,110.257 165.218,110.314 165.296,110.353 L170.672,110.353 C170.633,110.045 170.633,109.083 170.672,107.468 C170.711,106.237 170.633,105.352 170.438,104.814 C170.048,105.391 169.328,106.121 168.276,107.006 C166.99,108.083 166.211,108.756 165.939,109.026 C165.432,109.603 165.179,109.987 165.179,110.18 Z M185.025,106.09 C185.025,107.205 186.116,107.763 188.298,107.763 C188.384,107.763 188.469,107.763 188.555,107.763 C190.779,107.686 191.977,107.051 192.148,105.859 C191.635,105.013 190.373,104.59 188.362,104.59 C188.277,104.59 188.191,104.59 188.106,104.59 C186.052,104.628 185.025,105.128 185.025,106.09 Z" id="Shape"></path>
        </g>
    </g>
</svg>