<?xml version="1.0" encoding="UTF-8"?>
<svg width="153px" height="75px" viewBox="0 0 153 75" version="1.1" xmlns="http://www.w3.org/2000/svg" xmlns:xlink="http://www.w3.org/1999/xlink">
    <title>Slice</title>
    <g id="Page-1" stroke="none" stroke-width="1" fill="none" fill-rule="evenodd">
        <g id="Group-8" transform="translate(-67.000000, -71.000000)" fill-rule="nonzero">
            <g id="Group-27" transform="translate(81.101000, 83.667700)">
                <path d="M0.323,27.4213 C0.381,27.2563 0.438,27.0983 0.521,26.9413 C2.474,22.9923 10.823,21.3613 22.787,22.8103 L25.195,13.9508 C12.883,12.386 3.897,14.1495 2.399,19.7543 L0.323,27.4213 Z" id="Path" fill="#0095FF"></path>
                <path d="M45.252,18.1983 C45.202,18.3303 45.152,18.4633 45.094,18.5953 C43.224,22.6033 34.843,24.2583 22.787,22.8013 L20.379,31.6603 C32.691,33.2253 41.677,31.4613 43.175,25.8563 L45.252,18.1983 Z" id="Path" fill="#0000C9"></path>
                <path d="M8.2,8.859 C26.37,10.1671 44.929,19.1583 43.175,25.8733 L44.805,19.8793 C45.326,17.9913 45.582,17.0143 45.582,16.2276 C45.582,9.3888 27.669,1.0432 10.607,0 L8.2,8.859 Z" id="Path" fill="#0095FF"></path>
                <path d="M37.375,36.7523 C19.204,35.4523 0.645,26.4613 2.408,19.7463 L0.778,25.7403 C0.256,27.6283 0,28.6053 0,29.3923 C0,36.2303 17.914,44.5763 34.975,45.6193 L37.375,36.7523 Z" id="Path" fill="#0000C9"></path>
                <path d="M103.651,34.6663 C101.351,34.6993 100.126,33.2333 100.126,30.6343 C100.126,30.4603 100.134,30.2943 100.143,30.1293 L109.178,30.1293 C109.36,29.4413 109.476,28.6963 109.476,28.0093 C109.476,24.8383 107.532,22.4203 103.56,22.4203 C99.497,22.4203 95.89,26.4283 95.89,30.6343 C95.89,34.6663 98.521,37.1163 102.906,37.1163 C104.851,37.1163 106.762,36.4623 108.102,35.4443 L107.267,33.3493 C106.224,34.1613 104.942,34.6413 103.651,34.6663 Z M103.626,24.6893 C104.967,24.6893 105.653,25.5583 105.653,27.4713 C105.653,27.6533 105.645,27.8433 105.62,28.0423 L100.465,28.0423 C101.028,26.0223 102.228,24.6893 103.626,24.6893 Z" id="Shape" fill="#0000C9"></path>
                <path d="M67.882,21.5263 C67.882,18.2393 65.317,15.8468 61.428,15.8468 L53.906,15.8468 L48.23,36.7603 L52.98,36.7603 L55.073,29.0523 L59.194,29.0523 C63.91,29.0523 67.882,26.0053 67.882,21.5263 Z M57.373,26.6013 L55.743,26.6013 L57.994,18.2973 L59.707,18.2973 C61.866,18.2973 63.083,19.7633 63.083,21.7003 C63.074,24.8053 60.642,26.6013 57.373,26.6013 Z" id="Shape" fill="#0000C9"></path>
                <path d="M74.071,22.8093 L74.6,20.8643 C74.865,19.8453 75.32,18.1153 75.941,16.1117 C76.594,14.0501 77.794,12.7668 79.407,12.7668 C80.185,12.7668 80.665,13.1228 80.665,13.719 C80.632,14.373 80.094,14.7622 80.094,15.8137 C80.094,17.0393 81.137,17.9913 82.485,17.9913 C84.157,17.9913 85.497,16.6503 85.497,15.0023 C85.497,12.4605 83.321,10.788 80.003,10.788 C75.138,10.788 71.944,13.8928 69.942,21.1543 L61.816,50.7033 L66.417,50.7033 L73.433,25.0953 L78.216,25.0953 L75.072,36.7443 L79.672,36.7443 L83.437,22.7933 L74.071,22.7933 L74.071,22.8093 Z" id="Path" fill="#0000C9"></path>
                <polygon id="Path" fill="#0000C9" points="97.354 22.8093 85.175 22.8093 84.571 25.1113 90.47 25.1113 81.319 36.7603 94.218 36.7603 94.814 34.4593 88.178 34.4593"></polygon>
                <path d="M121.482,22.5693 C119.835,22.5693 118.081,23.6373 116.708,25.8483 L117.51,22.8103 L112.91,22.8103 L109.145,36.7603 L113.746,36.7603 L115.45,30.4853 C116.137,27.9183 117.808,25.4093 118.917,25.4093 C120.108,25.4093 119.662,27.6533 121.722,27.6533 C123.211,27.6533 124.113,26.2793 124.113,25.0203 C124.105,23.5553 122.946,22.5693 121.482,22.5693 Z" id="Path" fill="#0000C9"></path>
            </g>
        </g>
    </g>
</svg>